<?xml version="1.0" encoding="iso-8859-1"?>
<!-- Generator: Adobe Illustrator 21.0.2, SVG Export Plug-In . SVG Version: 6.00 Build 0)  -->
<svg version="1.1" id="&#x428;&#x430;&#x440;_1" xmlns="http://www.w3.org/2000/svg" xmlns:xlink="http://www.w3.org/1999/xlink"
	 x="0px" y="0px" viewBox="0 0 30 30" style="enable-background:new 0 0 30 30;" xml:space="preserve">
<g>
	<g>
		<path style="fill-rule:evenodd;clip-rule:evenodd;" d="M18.565,15L29.261,4.304c0.985-0.985,0.985-2.581,0-3.565
			c-0.984-0.985-2.58-0.985-3.565,0L15,11.435L4.303,0.739c-0.984-0.985-2.58-0.985-3.565,0c-0.985,0.984-0.985,2.58,0,3.565
			L11.434,15L0.739,25.696c-0.985,0.985-0.985,2.581,0,3.565c0.984,0.985,2.581,0.985,3.565,0L15,18.565l10.696,10.696
			c0.985,0.985,2.581,0.985,3.565,0c0.985-0.985,0.985-2.58,0-3.565L18.565,15z M18.565,15"/>
	</g>
</g>
</svg>
