<?xml version="1.0" encoding="utf-8"?>
<!-- Generator: Adobe Illustrator 21.0.1, SVG Export Plug-In . SVG Version: 6.00 Build 0)  -->
<svg version="1.1" id="Шар_1" xmlns="http://www.w3.org/2000/svg" xmlns:xlink="http://www.w3.org/1999/xlink" x="0px" y="0px"
	 viewBox="0 0 30 26.2" style="enable-background:new 0 0 30 26.2;" xml:space="preserve">
<g>
	<g>
		<path d="M4.3,13.7C1.9,13.7,0,15.7,0,18c0,2.4,1.9,4.3,4.3,4.3s4.3-1.9,4.3-4.3c0-0.2,0-0.4,0-0.6L9.7,17l1.9,1.9
			C11.7,19,11.9,19,12,19c0.1,0,0.2,0,0.3-0.1l4.7-3.2c0,0,0,0,0.1,0c1.4-1.2,3.4-1.5,4.8-1.5c0.2,0,0.4,0,0.6,0
			c-1.8,1.9-4.2,1.7-4.2,1.7l-2.1,1.6h5.3c0,0.2,0,0.3,0,0.5c0,2.4,1.9,4.3,4.3,4.3S30,20.4,30,18c0-0.7-0.2-1.4-0.5-2
			c0.5,0.2,0.6-0.2,0.3-0.6c0,0-1.3-2.4-5.1-1.9l1.1-1c0.1-0.1,0.1-0.2,0.2-0.3c0-0.3,0.1-0.6,0.1-0.8h-0.9
			c-0.8-1.3,0.6-2.2,0.6-2.2c0.1,0.1,0.2,0.3,0.3,0.4c-0.3-1.7-1.1-3-1.9-3.8C23,4.5,21.7,4,21.6,4c-0.1,0-0.1,0-0.2,0
			c-0.1,0-0.3,0.1-0.4,0.2c-0.1,0.2-0.2,0.4,0,0.6c0.5,0.9,0.8,1.5,0.9,2l-0.8-0.1c-0.3,0-0.5,0.1-0.6,0.4s0.1,0.5,0.4,0.6l0.9,0.2
			c0,0,0,0.1,0,0.1c-0.2,0.4-0.8,0.4-1,0.4c0,0-0.1,0-0.1,0c-2-0.6-3.4-0.8-3.5-0.8c0,0,0,0,0,0c-0.3,0-0.5-0.1-0.8-0.1
			c-1.2,0-2.3,0.5-3.1,1.3c-0.3,0.4-0.6,0.7-0.7,1c-2.1-0.3-3.3-1.5-3.3-1.5C9.4,8.1,9.2,8.1,9.1,8.1h0L3.4,8.1
			C3.2,8.1,3.1,8.3,3,8.4L2.7,9.1c-0.1,0.3,0,0.6,0.2,0.7L3.4,10H2.8c-0.2,0-0.4,0.2-0.4,0.4c0,0.2,0.2,0.4,0.4,0.4h0.3l-1.6,2
			c-0.1,0.2-0.1,0.4,0,0.6c0.1,0.1,0.2,0.1,0.3,0.1c0.1,0,0.2,0,0.3-0.1l2.1-2.5h0.4l0.9,2.1L9,14.4v0.7l-1.1,0.5
			C7.1,14.5,5.8,13.7,4.3,13.7L4.3,13.7z M9,13.3l-2.8-1.1l-0.4-1L9,12.7C9,12.7,9,13.3,9,13.3z M25.7,20.3c-1.3,0-2.3-1-2.3-2.3
			c0-0.5,0.1-0.9,0.4-1.2l0.9,1.8l1.8-0.9l-0.9-2c0.1,0,0.1,0,0.2,0c1.3,0,2.3,1,2.3,2.3C28,19.3,26.9,20.3,25.7,20.3L25.7,20.3z
			 M4.3,20.3c-1.3,0-2.3-1-2.3-2.3s1-2.3,2.3-2.3c0.6,0,1.2,0.3,1.6,0.7l-1.9,0.8l0.8,1.9l1.7-0.7C6.4,19.5,5.5,20.3,4.3,20.3
			L4.3,20.3z"/>
	</g>
</g>
</svg>
