<?xml version="1.0" encoding="iso-8859-1"?>
<!-- Generator: Adobe Illustrator 21.0.2, SVG Export Plug-In . SVG Version: 6.00 Build 0)  -->
<svg version="1.1" id="&#x428;&#x430;&#x440;_1" xmlns="http://www.w3.org/2000/svg" xmlns:xlink="http://www.w3.org/1999/xlink"
	 x="0px" y="0px" viewBox="0 0 30 30" style="enable-background:new 0 0 30 30;" xml:space="preserve">
<g>
	<path d="M15,1c7.72,0,14,6.28,14,14s-6.28,14-14,14S1,22.72,1,15S7.28,1,15,1 M15,0C6.716,0,0,6.716,0,15s6.716,15,15,15
		s15-6.716,15-15S23.284,0,15,0L15,0z"/>
	<g>
		<path d="M15.145,9.46c-0.44-0.42-0.67-0.93-0.67-1.52c0-0.59,0.23-1.1,0.67-1.52c0.46-0.42,1-0.63,1.63-0.63s1.17,0.21,1.62,0.63
			s0.67,0.93,0.67,1.52c0,0.59-0.22,1.1-0.67,1.52c-0.45,0.41-0.99,0.62-1.62,0.62S15.605,9.87,15.145,9.46z"/>
		<path d="M18.185,22.43c0.29-0.08,0.5-0.15,0.64-0.21l-0.26,1.05c-0.77,0.3-1.39,0.53-1.85,0.69c-0.46,0.17-0.99,0.25-1.6,0.25
			c-0.93,0-1.66-0.23-2.18-0.69c-0.52-0.45-0.77-1.04-0.77-1.74c0-0.27,0.01-0.55,0.05-0.83c0.04-0.29,0.1-0.61,0.19-0.97l0.97-3.41
			c0.08-0.33,0.16-0.64,0.21-0.93c0.06-0.29,0.09-0.56,0.09-0.8c0-0.44-0.09-0.74-0.27-0.91c-0.18-0.18-0.53-0.26-1.03-0.26
			c-0.25,0-0.51,0.04-0.77,0.11c-0.26,0.09-0.49,0.16-0.67,0.23l0.25-1.05c0.63-0.26,1.24-0.48,1.82-0.66
			c0.58-0.19,1.12-0.28,1.64-0.28c0.92,0,1.64,0.23,2.14,0.67c0.5,0.45,0.76,1.03,0.76,1.75c0,0.15-0.02,0.41-0.05,0.78
			c-0.04,0.38-0.1,0.72-0.2,1.03l-0.96,3.4c-0.08,0.28-0.14,0.59-0.21,0.94c-0.06,0.35-0.09,0.62-0.09,0.79
			c0,0.46,0.1,0.77,0.3,0.93c0.2,0.17,0.55,0.25,1.05,0.25C17.625,22.56,17.885,22.51,18.185,22.43z"/>
	</g>
</g>
</svg>
