<?xml version="1.0" encoding="iso-8859-1"?>
<!-- Generator: Adobe Illustrator 21.0.2, SVG Export Plug-In . SVG Version: 6.00 Build 0)  -->
<svg version="1.1" id="&#x428;&#x430;&#x440;_1" xmlns="http://www.w3.org/2000/svg" xmlns:xlink="http://www.w3.org/1999/xlink"
	 x="0px" y="0px" viewBox="0 0 30 30" style="enable-background:new 0 0 30 30;" xml:space="preserve">
<g>
	<path style="fill:#12100C;" d="M26.433,5.223c-0.539,0-0.978-0.439-0.978-0.978s0.439-0.978,0.978-0.978
		c0.539,0,0.978,0.439,0.978,0.978S26.972,5.223,26.433,5.223L26.433,5.223z M29.378,4.273c0-1.618-1.316-2.935-2.935-2.935
		c-1.63,0-1.128-0.087-14.022,12.807v4.802h3.633l9.434-9.546v1.275c0,1.085,0.543,2.047,1.416,2.513
		c0.419,0.223,0.629,0.724,0.459,1.211c-0.101,0.287-0.338,0.512-0.631,0.595c-0.654,0.185-1.249-0.314-1.243-0.948
		c0.004-0.396-0.231-0.762-0.601-0.901c-0.686-0.257-1.332,0.25-1.332,0.91c0,1.885,1.765,3.36,3.71,2.823
		c0.885-0.244,1.601-0.912,1.908-1.777c0.52-1.467-0.111-2.976-1.369-3.645c-0.228-0.122-0.382-0.436-0.382-0.781V7.445
		C28.456,6.411,29.378,5.742,29.378,4.273L29.378,4.273z"/>
	<path style="fill:#12100C;" d="M24.15,26.745c-0.539,0-0.978-0.439-0.978-0.978c0-0.539,0.439-0.978,0.978-0.978
		s0.978,0.439,0.978,0.978C25.128,26.306,24.689,26.745,24.15,26.745L24.15,26.745z M15.672,26.745
		c-0.539,0-0.978-0.439-0.978-0.978c0-0.539,0.439-0.978,0.978-0.978c0.539,0,0.978,0.439,0.978,0.978
		C16.65,26.306,16.211,26.745,15.672,26.745L15.672,26.745z M6.867,26.745c-0.539,0-0.978-0.439-0.978-0.978
		c0-0.539,0.439-0.978,0.978-0.978s0.978,0.439,0.978,0.978C7.846,26.306,7.407,26.745,6.867,26.745L6.867,26.745z M1.992,17.951
		v-2.925c0-1.621,1.314-2.935,2.935-2.935h1.636v5.859H1.992L1.992,17.951z M29.022,20.881h-0.023c-9.897,0-8.9,0-18.569,0v-9.803
		c0-0.54-0.438-0.978-0.978-0.978h-4.56C2.19,10.099,0,12.289,0,14.991v4.894h2.868c0.578,0,1.045,0.473,0.996,1.049
		c-0.042,0.495-0.457,0.884-0.963,0.884H0v0.991c0,1.621,1.314,2.935,2.935,2.935h0.978c0,1.609,1.316,2.918,2.935,2.918
		c1.618,0,2.935-1.309,2.935-2.918h2.935c0,1.609,1.316,2.918,2.935,2.918c1.618,0,2.935-1.309,2.935-2.918h2.609
		c0,1.609,1.316,2.918,2.935,2.918c1.618,0,2.935-1.309,2.935-2.918c1.618,0,2.935-1.309,2.935-2.918v-0.973
		C30,21.316,29.562,20.881,29.022,20.881L29.022,20.881z"/>
</g>
</svg>
