<?xml version="1.0" encoding="iso-8859-1"?>
<!-- Generator: Adobe Illustrator 21.0.2, SVG Export Plug-In . SVG Version: 6.00 Build 0)  -->
<svg version="1.1" id="&#x428;&#x430;&#x440;_1" xmlns="http://www.w3.org/2000/svg" xmlns:xlink="http://www.w3.org/1999/xlink"
	 x="0px" y="0px" viewBox="0 0 30 30" style="enable-background:new 0 0 30 30;" xml:space="preserve">
<g>
	<path d="M29.584,3.717l-2.683-2.68c-0.279-0.279-0.642-0.417-1.005-0.417c-0.366,0-0.729,0.138-1.005,0.414l-2.148,2.143
		l4.696,4.686l2.145-2.142C30.139,5.169,30.139,4.268,29.584,3.717L29.584,3.717z M29.584,3.717"/>
	<path d="M8.808,17.085l4.695,4.686l12.93-12.906l-4.695-4.686L8.808,17.085z M8.808,17.085"/>
	<path d="M7.794,18.09l-1.001,5.683l5.697-0.999L7.794,18.09z M7.794,18.09"/>
	<path d="M20.773,26.308H3.072V8.607h12.493l3.077-3.072H1.986C0.894,5.535,0,6.429,0,7.524v19.869c0,1.092,0.894,1.986,1.986,1.986
		h19.869c1.095,0,1.989-0.894,1.989-1.986V13.188l-3.072,3.066V26.308z M20.773,26.308"/>
</g>
</svg>
