<?xml version="1.0" encoding="iso-8859-1"?>
<!-- Generator: Adobe Illustrator 21.0.2, SVG Export Plug-In . SVG Version: 6.00 Build 0)  -->
<svg version="1.1" id="&#x428;&#x430;&#x440;_1" xmlns="http://www.w3.org/2000/svg" xmlns:xlink="http://www.w3.org/1999/xlink"
	 x="0px" y="0px" viewBox="0 0 30 30" style="enable-background:new 0 0 30 30;" xml:space="preserve">
<g>
	<path d="M15,0C6.729,0,0,6.729,0,15s6.729,15,15,15c8.271,0,15-6.729,15-15S23.271,0,15,0L15,0z M15,25.654
		c-5.884,0-10.654-4.77-10.654-10.654C4.346,9.116,9.116,4.346,15,4.346c5.884,0,10.654,4.77,10.654,10.654
		C25.654,20.884,20.884,25.654,15,25.654L15,25.654z M15,25.654"/>
	<path d="M15,5.726c-5.114,0-9.274,4.16-9.274,9.274s4.16,9.274,9.274,9.274c5.114,0,9.275-4.16,9.275-9.274S20.114,5.726,15,5.726
		L15,5.726z M23.087,14.409h-4.5c-0.092-0.569-0.317-1.093-0.641-1.542l3.177-3.177C22.238,10.974,22.956,12.611,23.087,14.409
		L23.087,14.409z M15.582,6.912c1.797,0.128,3.433,0.844,4.717,1.956l-3.176,3.176c-0.449-0.324-0.973-0.548-1.542-0.64V6.912z
		 M14.418,6.912v4.491c-0.569,0.092-1.093,0.316-1.541,0.64L9.7,8.868C10.985,7.756,12.621,7.041,14.418,6.912L14.418,6.912z
		 M8.877,9.69l3.177,3.177c-0.324,0.448-0.548,0.973-0.64,1.541h-4.5C7.044,12.611,7.762,10.975,8.877,9.69L8.877,9.69z
		 M6.912,15.573h4.502c0.091,0.569,0.316,1.093,0.64,1.541L8.868,20.3C7.754,19.012,7.038,17.373,6.912,15.573L6.912,15.573z
		 M14.418,23.088c-1.801-0.128-3.441-0.847-4.728-1.964l3.187-3.187c0.448,0.324,0.973,0.549,1.541,0.641V23.088z M14.418,17.38
		v0.008c-0.251-0.061-0.487-0.16-0.701-0.291l0.005-0.006c-0.336-0.205-0.618-0.487-0.822-0.823l-0.006,0.005
		c-0.131-0.215-0.23-0.45-0.292-0.701h0.009c-0.046-0.187-0.072-0.381-0.072-0.582c0-0.201,0.027-0.395,0.072-0.582h-0.009
		c0.062-0.251,0.161-0.486,0.292-0.701l0.006,0.006c0.204-0.336,0.487-0.618,0.822-0.823l-0.005-0.006
		c0.215-0.131,0.451-0.23,0.701-0.291v0.008c0.187-0.045,0.381-0.072,0.582-0.072c0.201,0,0.395,0.027,0.583,0.072v-0.008
		c0.251,0.061,0.486,0.16,0.701,0.291l-0.005,0.006c0.336,0.204,0.618,0.487,0.823,0.823l0.005-0.006
		c0.132,0.215,0.231,0.451,0.292,0.701H17.39c0.045,0.187,0.072,0.382,0.072,0.582c0,0.201-0.027,0.395-0.072,0.583h0.008
		c-0.061,0.251-0.16,0.487-0.292,0.701l-0.005-0.006c-0.205,0.336-0.487,0.618-0.823,0.823l0.005,0.006
		c-0.215,0.131-0.45,0.23-0.701,0.291V17.38c-0.187,0.045-0.382,0.072-0.583,0.072C14.799,17.452,14.605,17.426,14.418,17.38
		L14.418,17.38z M15.582,23.088v-4.51c0.569-0.092,1.093-0.316,1.542-0.641l3.186,3.187C19.023,22.24,17.384,22.959,15.582,23.088
		L15.582,23.088z M21.132,20.3l-3.186-3.186c0.324-0.448,0.549-0.973,0.641-1.541h4.501C22.962,17.373,22.246,19.012,21.132,20.3
		L21.132,20.3z M21.132,20.3"/>
</g>
</svg>
