<?xml version="1.0" encoding="iso-8859-1"?>
<!-- Generator: Adobe Illustrator 21.0.2, SVG Export Plug-In . SVG Version: 6.00 Build 0)  -->
<svg version="1.1" id="&#x428;&#x430;&#x440;_1" xmlns="http://www.w3.org/2000/svg" xmlns:xlink="http://www.w3.org/1999/xlink"
	 x="0px" y="0px" viewBox="0 0 30 30" style="enable-background:new 0 0 30 30;" xml:space="preserve">
<g>
	<path style="fill:#0079C1;" d="M22.431,3.077C20.446,1.094,17.808,0,15.003,0c-2.809,0-5.447,1.094-7.432,3.077
		C3.9,6.75,3.443,13.657,6.584,17.844L15.003,30l8.402-12.14C26.559,13.657,26.102,6.75,22.431,3.077z"/>
	<circle style="fill:#FFFFFF;" cx="15" cy="10.667" r="9.083"/>
	<g>
		<path style="fill:#49A942;" d="M21.285,9.134c-0.071-0.625-1.752,0-1.752,0l-0.098,0.888c-0.038-0.02-0.074-0.04-0.113-0.058
			L18.895,8.11c-0.155-0.881-0.82-1.531-1.791-1.436h-2.492c-0.016,0.042-0.07,0.345-0.07,0.345h2.541
			c0.561,0,1.073,0.361,1.213,0.955l0.451,1.808c-0.028-0.001-0.057-0.004-0.085-0.004h-5.225v1.724h3.448v0.345h-3.103v0.345h3.103
			v0.345h-3.103l0.001,1.379h3.447v0.948c0,0.385,0.463,0.699,1.035,0.699c0.57,0,1.034-0.312,1.034-0.699v-1.072
			c0,0,0.764-0.606,0.69-1.089v-1.697c0.075-0.376-0.137-0.71-0.464-0.93l1.761-0.094C21.285,9.983,21.355,9.757,21.285,9.134
			L21.285,9.134z M19.299,12.536H17.23v-1.034h2.069V12.536z M19.267,12.373"/>
		<rect x="13.437" y="12.191" style="fill:#49A942;" width="0.345" height="0.345"/>
		<rect x="13.437" y="11.501" style="fill:#49A942;" width="0.345" height="0.345"/>
		<path style="fill:#49A942;" d="M14.233,6.344c-0.001-0.767-0.797-1.79-0.797-1.79v1.653L12.168,6.8l-1.145-0.594V4.554
			c0,0-0.92,1.023-0.92,1.79c0,0.803,0.92,1.841,0.92,1.841v6.779c0,0.286,0.116,0.543,0.303,0.732
			c0.187,0.187,0.446,0.3,0.732,0.302c0.569,0,1.032-0.462,1.034-1.034V8.143C13.092,8.143,14.232,7.115,14.233,6.344L14.233,6.344z
			 M12.424,15.426c-0.145,0.146-0.381,0.146-0.527,0c-0.144-0.146-0.144-0.38,0.001-0.525c0.146-0.146,0.381-0.146,0.525-0.001
			C12.57,15.044,12.57,15.28,12.424,15.426L12.424,15.426z M12.424,15.426"/>
	</g>
</g>
</svg>
