<?xml version="1.0" encoding="iso-8859-1"?>
<!-- Generator: Adobe Illustrator 21.0.2, SVG Export Plug-In . SVG Version: 6.00 Build 0)  -->
<svg version="1.1" id="&#x428;&#x430;&#x440;_1" xmlns="http://www.w3.org/2000/svg" xmlns:xlink="http://www.w3.org/1999/xlink"
	 x="0px" y="0px" viewBox="0 0 30 30" style="enable-background:new 0 0 30 30;" xml:space="preserve">
<g>
	<g>
		<path d="M22.431,3.077C20.446,1.094,17.808,0,15.003,0c-2.809,0-5.447,1.094-7.432,3.077C3.9,6.75,3.443,13.657,6.584,17.844
			L15.003,30l8.402-12.14C26.559,13.657,26.102,6.75,22.431,3.077L22.431,3.077z M15.098,14.246c-2.116,0-3.836-1.72-3.836-3.836
			c0-2.113,1.72-3.834,3.836-3.834c2.113,0,3.834,1.72,3.834,3.834C18.932,12.525,17.212,14.246,15.098,14.246L15.098,14.246z
			 M15.098,14.246"/>
	</g>
</g>
</svg>
