<?xml version="1.0" encoding="iso-8859-1"?>
<!-- Generator: Adobe Illustrator 21.0.2, SVG Export Plug-In . SVG Version: 6.00 Build 0)  -->
<svg version="1.1" id="&#x428;&#x430;&#x440;_1" xmlns="http://www.w3.org/2000/svg" xmlns:xlink="http://www.w3.org/1999/xlink"
	 x="0px" y="0px" viewBox="0 0 30 30" style="enable-background:new 0 0 30 30;" xml:space="preserve">
<g>
	<path d="M8.375,12.611c-2.855,0-5.177,2.322-5.177,5.176c0,2.855,2.322,5.177,5.177,5.177c2.854,0,5.176-2.322,5.176-5.177
		C13.552,14.933,11.229,12.611,8.375,12.611L8.375,12.611z M12.889,17.408h-2.514c-0.052-0.317-0.176-0.609-0.357-0.859l1.774-1.774
		C12.415,15.491,12.816,16.404,12.889,17.408L12.889,17.408z M8.747,13.273c1.003,0.072,1.916,0.471,2.633,1.091l-1.774,1.774
		c-0.25-0.18-0.542-0.305-0.859-0.356V13.273z M8.015,13.273v2.509c-0.317,0.052-0.609,0.176-0.859,0.357l-1.774-1.774
		C6.099,13.744,7.012,13.345,8.015,13.273L8.015,13.273z M4.957,14.774l1.774,1.774c-0.181,0.25-0.305,0.542-0.356,0.859H3.861
		C3.934,16.405,4.335,15.491,4.957,14.774L4.957,14.774z M3.86,18.141h2.515C6.426,18.458,6.55,18.75,6.731,19l-1.779,1.779
		C4.33,20.06,3.931,19.146,3.86,18.141L3.86,18.141z M8.015,22.301c-1.005-0.072-1.921-0.473-2.639-1.096l1.78-1.779
		c0.25,0.18,0.542,0.305,0.859,0.356V22.301z M6.906,17.782c0-0.812,0.658-1.47,1.469-1.47c0.811,0,1.469,0.658,1.469,1.47
		c0,0.811-0.657,1.468-1.469,1.468C7.564,19.251,6.906,18.594,6.906,17.782L6.906,17.782z M8.747,22.301v-2.519
		c0.317-0.051,0.609-0.176,0.859-0.357l1.779,1.779C10.668,21.828,9.753,22.23,8.747,22.301L8.747,22.301z M11.798,20.779L10.018,19
		c0.181-0.25,0.305-0.542,0.357-0.859h2.515C12.819,19.146,12.419,20.06,11.798,20.779L11.798,20.779z M11.798,20.745"/>
	<path d="M28.883,8.428c-0.114,0-0.231,0.017-0.348,0.049l-1.323,0.364l-1.374-3.345C25.45,4.548,24.3,3.777,23.276,3.777H10.451
		c-1.027,0-2.181,0.773-2.571,1.724l-1.376,3.35L5.195,8.49C5.078,8.458,4.961,8.441,4.846,8.441c-0.626,0-1.082,0.479-1.082,1.139
		v0.782c0,0.148,0.024,0.29,0.067,0.424c-2.607,1.697-4.22,4.798-3.749,8.224c0.508,3.69,3.443,6.625,7.133,7.132
		c4.143,0.569,7.813-1.908,9.094-5.509h8.415v1.685c0,0.769,0.624,1.393,1.393,1.393h1.758c0.769,0,1.393-0.624,1.393-1.393v-6.719
		c0,0-0.283-2.442-0.644-3.323l-0.222-0.584h0.168c0.768,0.044,1.393-0.581,1.431-1.348v-0.78
		C29.962,8.906,29.508,8.428,28.883,8.428L28.883,8.428z M9.499,5.842c0.234-0.572,0.932-1.039,1.55-1.039h11.593
		c0.618,0,1.316,0.468,1.55,1.039l2.095,5.103c0.234,0.572-0.079,1.039-0.697,1.039h-11.19c-1.538-1.611-3.705-2.617-6.103-2.617
		c-0.084,0-0.167,0.004-0.25,0.006L9.499,5.842z M8.375,23.734c-3.284,0-5.947-2.662-5.947-5.947c0-3.284,2.663-5.946,5.947-5.946
		s5.946,2.662,5.946,5.946C14.321,21.072,11.659,23.734,8.375,23.734L8.375,23.734z M26.072,17.994h-4.016
		c-0.306,0-0.557-0.251-0.557-0.557v-1.964c0-0.306,0.251-0.557,0.557-0.557h4.016c0.306,0,0.557,0.251,0.557,0.557v1.964
		C26.629,17.744,26.378,17.994,26.072,17.994z M26.598,17.38"/>
</g>
</svg>
