<?xml version="1.0" encoding="iso-8859-1"?>
<!-- Generator: Adobe Illustrator 21.0.2, SVG Export Plug-In . SVG Version: 6.00 Build 0)  -->
<svg version="1.1" id="&#x428;&#x430;&#x440;_1" xmlns="http://www.w3.org/2000/svg" xmlns:xlink="http://www.w3.org/1999/xlink"
	 x="0px" y="0px" viewBox="0 0 30 30" style="enable-background:new 0 0 30 30;" xml:space="preserve">
<g>
	<path d="M24.163,12.93V9.163C24.163,4.111,20.052,0,15,0S5.837,4.111,5.837,9.163v3.731c-0.57,0.217-1.134,0.708-1.134,1.679v5.13
		C4.703,25.381,9.322,30,15,30c5.678,0,10.297-4.619,10.297-10.297v-5.13C25.297,13.652,24.747,13.163,24.163,12.93L24.163,12.93z
		 M16.957,23.952c0.032,0.171-0.083,0.31-0.257,0.31h-3.361c-0.174,0-0.29-0.14-0.257-0.31L13.62,21.1
		c-0.411-0.375-0.668-0.915-0.668-1.514c0-1.131,0.917-2.048,2.048-2.048c1.132,0,2.049,0.917,2.049,2.048
		c0,0.584-0.244,1.11-0.636,1.483L16.957,23.952z M21.004,12.747H8.996V9.163c0-3.31,2.693-6.004,6.003-6.004
		c3.31,0,6.004,2.693,6.004,6.004V12.747z M21.004,12.747"/>
</g>
</svg>
