<?xml version="1.0" encoding="iso-8859-1"?>
<!-- Generator: Adobe Illustrator 21.0.2, SVG Export Plug-In . SVG Version: 6.00 Build 0)  -->
<svg version="1.1" id="&#x428;&#x430;&#x440;_1" xmlns="http://www.w3.org/2000/svg" xmlns:xlink="http://www.w3.org/1999/xlink"
	 x="0px" y="0px" viewBox="0 0 30 30" style="enable-background:new 0 0 30 30;" xml:space="preserve">
<g>
	<path style="fill-rule:evenodd;clip-rule:evenodd;" d="M28.125,13.125h-11.25V1.897c0-0.86-0.57-1.637-1.405-1.84
		c-1.239-0.3-2.344,0.63-2.344,1.818v11.25H1.896c-0.86,0-1.637,0.57-1.84,1.406c-0.3,1.239,0.63,2.344,1.818,2.344h11.25l0,11.227
		c0,0.86,0.569,1.637,1.405,1.84c1.239,0.302,2.345-0.629,2.345-1.818v-11.25h11.228c0.86,0,1.637-0.569,1.84-1.405
		C30.245,14.231,29.314,13.125,28.125,13.125L28.125,13.125z M28.019,13.099"/>
</g>
</svg>
