<?xml version="1.0" encoding="iso-8859-1"?>
<!-- Generator: Adobe Illustrator 21.0.2, SVG Export Plug-In . SVG Version: 6.00 Build 0)  -->
<svg version="1.1" id="&#x428;&#x430;&#x440;_1" xmlns="http://www.w3.org/2000/svg" xmlns:xlink="http://www.w3.org/1999/xlink"
	 x="0px" y="0px" viewBox="0 0 30 30" style="enable-background:new 0 0 30 30;" xml:space="preserve">
<path d="M29.841,10.997c-0.336-0.897-1.171-1.531-2.097-1.611l-7.411-0.879l-3.037-6.995C16.902,0.595,16.002,0.002,15,0
	c-0.996,0-1.897,0.591-2.293,1.504l-3.04,7.003L2.284,9.383c-0.957,0.084-1.792,0.72-2.126,1.616
	c-0.336,0.9-0.122,1.926,0.576,2.645l5.737,5.424l-1.743,7.983c-0.174,0.954,0.225,1.932,1.018,2.492
	c0.782,0.551,1.818,0.626,2.724,0.103L15,25.486l6.567,4.181C21.945,29.885,22.376,30,22.812,30c0.518,0,1.015-0.157,1.438-0.455
	c0.792-0.557,1.193-1.533,1.015-2.52l-1.737-7.958l5.77-5.456C29.965,12.922,30.178,11.895,29.841,10.997z M27.981,12.279
	l-6.51,6.153l1.956,8.958c0.043,0.238-0.058,0.482-0.255,0.621c-0.193,0.136-0.507,0.123-0.635,0.052L15,23.263l-7.502,4.779
	c-0.206,0.118-0.477,0.105-0.671-0.031c-0.199-0.14-0.298-0.385-0.262-0.591l1.964-8.988l-6.477-6.121
	c-0.17-0.176-0.222-0.427-0.137-0.656c0.084-0.224,0.294-0.384,0.563-0.407l8.48-1.005l3.468-7.992
	c0.2-0.459,0.949-0.46,1.149,0.005l3.467,7.987l8.51,1.008c0.24,0.021,0.449,0.179,0.533,0.404l0.001,0.001
	C28.17,11.881,28.117,12.137,27.981,12.279z"/>
</svg>
