<?xml version="1.0" encoding="iso-8859-1"?>
<!-- Generator: Adobe Illustrator 21.0.2, SVG Export Plug-In . SVG Version: 6.00 Build 0)  -->
<svg version="1.1" id="&#x428;&#x430;&#x440;_1" xmlns="http://www.w3.org/2000/svg" xmlns:xlink="http://www.w3.org/1999/xlink"
	 x="0px" y="0px" viewBox="0 0 30 30" style="enable-background:new 0 0 30 30;" xml:space="preserve">
<g>
	<path d="M29.239,1.347c-0.534-0.221-0.989-0.13-1.367,0.274L25.333,4.14c-1.394-1.315-2.985-2.334-4.776-3.056
		C18.766,0.362,16.914,0,15.001,0c-2.032,0-3.972,0.397-5.821,1.192C7.331,1.985,5.736,3.053,4.394,4.394
		c-1.34,1.342-2.409,2.937-3.202,4.785C0.397,11.029,0,12.969,0,15.001c0,2.031,0.397,3.97,1.192,5.82
		c0.795,1.849,1.862,3.444,3.202,4.785c1.342,1.34,2.937,2.409,4.785,3.202C11.029,29.603,12.968,30,15.001,30
		c2.239,0,4.368-0.472,6.386-1.416c2.018-0.943,3.738-2.274,5.156-3.994c0.104-0.13,0.153-0.276,0.146-0.439
		c-0.006-0.163-0.068-0.296-0.185-0.4l-2.676-2.696c-0.144-0.117-0.306-0.176-0.488-0.176c-0.209,0.026-0.358,0.104-0.449,0.235
		c-0.951,1.237-2.115,2.194-3.496,2.871c-1.38,0.677-2.845,1.015-4.394,1.015c-1.354,0-2.647-0.263-3.877-0.791
		c-1.23-0.527-2.295-1.239-3.193-2.138c-0.898-0.898-1.611-1.963-2.139-3.193c-0.528-1.23-0.791-2.522-0.791-3.877
		c0-1.354,0.264-2.647,0.791-3.877c0.527-1.23,1.24-2.295,2.139-3.193c0.899-0.899,1.963-1.612,3.193-2.138
		c1.23-0.528,2.523-0.791,3.877-0.791c2.617,0,4.889,0.892,6.817,2.676l-2.697,2.695c-0.403,0.391-0.494,0.84-0.273,1.347
		c0.221,0.521,0.605,0.782,1.153,0.782h8.75c0.338,0,0.631-0.124,0.879-0.371C29.877,11.882,30,11.588,30,11.25V2.5
		C30,1.954,29.747,1.57,29.239,1.347L29.239,1.347z M29.273,1.462"/>
</g>
</svg>
