<?xml version="1.0" encoding="iso-8859-1"?>
<!-- Generator: Adobe Illustrator 21.0.2, SVG Export Plug-In . SVG Version: 6.00 Build 0)  -->
<svg version="1.1" id="&#x428;&#x430;&#x440;_1" xmlns="http://www.w3.org/2000/svg" xmlns:xlink="http://www.w3.org/1999/xlink"
	 x="0px" y="0px" viewBox="0 0 30 30" style="enable-background:new 0 0 30 30;" xml:space="preserve">
<g>
	<g>
		<path d="M27.154,17.089c-1.297-1.062-2.352-1.923-2.352-1.923l-2.455-3.261c-1.206-1.602-3.811-2.902-5.818-2.902h-4.574
			c0,0.53,0,1.11,0,1.731h3.844c0,0,2.851,0.259,4.138,1.556c1.288,1.297,2.126,3.114,2.126,3.114l-10.11,0.097
			c0,2.382-0.003,4.678-0.005,6.132h3.079c0,0,2.863,0,3.788,1.148c0.95,1.181,0.907,2.296,0.907,2.296l-7.967,0.06
			c-0.078,0.451-0.182,0.839-0.309,1.166h12.348v2.139c0,0.861,0.841,1.558,1.881,1.558h2.425c1.039,0,1.881-0.697,1.881-1.558
			V24.81c0-0.413-0.183-0.785-0.477-1.064v-1.102C29.503,20.637,28.452,18.151,27.154,17.089L27.154,17.089z M23.318,21.382
			c-1.695,0-4.108,0.363-4.108-0.468c0-0.832,2.413-2.544,4.108-2.544c1.698,0,3.071,0.674,3.071,1.505
			C26.389,20.708,25.015,21.382,23.318,21.382L23.318,21.382z M23.318,21.382"/>
		<path d="M5.468,29.25c2.108,0,3.933-1.196,4.84-2.947c0.041-0.081,0.084-0.162,0.122-0.246c0.117-0.256,0.202-0.572,0.269-0.912
			c0.173-0.874,0.208-1.926,0.208-2.648c0.003-0.235,0.003-0.532,0.003-0.867c0.005-1.452,0.005-3.742,0.008-6.119
			c0-1.637,0-3.307,0-4.777c0-0.621,0-1.203,0.003-1.731c0-1.662,0-2.782,0-2.782c7.039,0,14.92,3.7,14.096,6.122
			c-0.185,0.547-0.2,0.834-0.048,0.834c0.109,0,0.309-0.152,0.596-0.464C34.156,3.355,13.889,0.832,9.14,0.025
			C9.044,0.008,8.95,0,8.856,0C8.002,0,7.343,0.682,7.343,1.587v17.104c-0.585-0.215-1.216-0.337-1.875-0.337
			c-3.007,0-5.448,2.438-5.448,5.448C0.02,26.812,2.461,29.25,5.468,29.25L5.468,29.25z M5.468,29.25"/>
	</g>
</g>
</svg>
