<?xml version="1.0" encoding="utf-8"?>
<!-- Generator: Adobe Illustrator 21.0.1, SVG Export Plug-In . SVG Version: 6.00 Build 0)  -->
<svg version="1.1" id="Шар_1" xmlns="http://www.w3.org/2000/svg" xmlns:xlink="http://www.w3.org/1999/xlink" x="0px" y="0px"
	 viewBox="0 0 30 15.1" style="enable-background:new 0 0 30 15.1;" xml:space="preserve">
<g>
	<path d="M4,9.8c-0.8,0-1.5,0.7-1.5,1.5c0,0.8,0.7,1.5,1.5,1.5c0.8,0,1.5-0.7,1.5-1.5C5.5,10.5,4.8,9.8,4,9.8L4,9.8z M4,12.1
		c-0.4,0-0.7-0.3-0.7-0.7c0-0.4,0.3-0.7,0.7-0.7c0.4,0,0.7,0.3,0.7,0.7C4.7,11.8,4.3,12.1,4,12.1L4,12.1z M7.6,9.8
		C6.7,9.8,6,10.5,6,11.4c0,0.8,0.7,1.5,1.5,1.5c0.9,0,1.5-0.7,1.5-1.5C9.1,10.5,8.4,9.8,7.6,9.8L7.6,9.8z M7.6,12.1
		c-0.4,0-0.7-0.3-0.7-0.7c0-0.4,0.3-0.7,0.7-0.7c0.4,0,0.7,0.3,0.7,0.7C8.2,11.8,7.9,12.1,7.6,12.1L7.6,12.1z M11.2,9.8
		c-0.8,0-1.5,0.7-1.5,1.5c0,0.8,0.7,1.5,1.5,1.5c0.9,0,1.5-0.7,1.5-1.5C12.7,10.5,12.1,9.8,11.2,9.8L11.2,9.8z M11.2,12.1
		c-0.4,0-0.7-0.3-0.7-0.7c0-0.4,0.3-0.7,0.7-0.7c0.4,0,0.7,0.3,0.7,0.7C11.9,11.8,11.6,12.1,11.2,12.1L11.2,12.1z M24.2,4.4V2.8
		c1.7,0.7,2.6,1.6,2.6,1.6S24.2,4.4,24.2,4.4z M0,2.7v6.4h0.5V11h1.6C2.3,10.2,3,9.5,4,9.5c0.8,0,1.5,0.5,1.8,1.2
		C6,10,6.7,9.5,7.5,9.5c0.8,0,1.6,0.5,1.8,1.3c0.3-0.8,1-1.3,1.8-1.3c0.9,0,1.7,0.6,1.9,1.5h11.1V4.8h-0.1v-2H0z M0.9,9.1h0.2v1H0.9
		V9.1z M30,10.8v0.6h-0.8c0-0.1,0-0.2,0-0.3c0-0.1,0-0.2,0-0.3H30z M25,10.8c0,0.1,0,0.2,0,0.3c0,0.1,0,0.2,0,0.3h-0.6v-0.6H25
		L25,10.8z M24.2,11.2v0.5H13.1c0-0.1,0-0.1,0-0.2c0-0.1,0-0.2,0-0.3C13.1,11.2,24.2,11.2,24.2,11.2z M2.1,11.2c0,0.1,0,0.2,0,0.3
		c0,0.1,0,0.1,0,0.2H0.3v-0.5H2.1L2.1,11.2z M28.7,4.7h-4.3v5.9H25c0.2-0.9,1-1.5,2-1.5c1,0,1.8,0.7,2,1.5h0.9V7.5L28.7,4.7z
		 M28.5,5.2l0.9,2.5h-1.7l-1.2-1h-1.7V5.2H28.5z M27,9.7c-0.9,0-1.6,0.7-1.6,1.6c0,0.9,0.7,1.6,1.6,1.6c0.9,0,1.7-0.7,1.7-1.6
		C28.7,10.5,27.9,9.7,27,9.7L27,9.7z M27,12.1c-0.4,0-0.7-0.3-0.7-0.7c0-0.4,0.3-0.7,0.7-0.7c0.4,0,0.7,0.3,0.7,0.7
		C27.7,11.8,27.4,12.1,27,12.1L27,12.1z"/>
</g>
</svg>
