<?xml version="1.0" encoding="iso-8859-1"?>
<!-- Generator: Adobe Illustrator 21.0.2, SVG Export Plug-In . SVG Version: 6.00 Build 0)  -->
<svg version="1.1" id="&#x428;&#x430;&#x440;_1" xmlns="http://www.w3.org/2000/svg" xmlns:xlink="http://www.w3.org/1999/xlink"
	 x="0px" y="0px" viewBox="0 0 30 30" style="enable-background:new 0 0 30 30;" xml:space="preserve">
<g>
	<path d="M22.808,19.846c-0.98-0.967-2.204-0.967-3.177,0c-0.743,0.737-1.486,1.473-2.216,2.222c-0.2,0.206-0.368,0.25-0.612,0.112
		c-0.481-0.262-0.993-0.474-1.455-0.761c-2.154-1.355-3.958-3.096-5.556-5.057c-0.793-0.974-1.498-2.016-1.992-3.19
		c-0.1-0.237-0.081-0.393,0.112-0.587c0.743-0.718,1.467-1.455,2.198-2.191c1.017-1.024,1.017-2.222-0.006-3.252
		C9.524,6.555,8.943,5.981,8.363,5.394C7.763,4.794,7.17,4.189,6.564,3.596c-0.98-0.955-2.204-0.955-3.177,0.006
		C2.638,4.339,1.92,5.094,1.158,5.818C0.453,6.486,0.097,7.304,0.022,8.259c-0.119,1.555,0.262,3.021,0.799,4.451
		c1.099,2.959,2.772,5.587,4.801,7.997c2.741,3.259,6.012,5.837,9.838,7.697c1.723,0.836,3.508,1.48,5.45,1.586
		c1.336,0.075,2.497-0.262,3.427-1.305c0.637-0.712,1.355-1.361,2.029-2.041c0.999-1.011,1.005-2.235,0.012-3.234
		C25.193,22.218,24,21.032,22.808,19.846L22.808,19.846z M22.808,19.846"/>
	<path d="M21.616,14.87l2.304-0.393c-0.362-2.116-1.361-4.033-2.878-5.556c-1.604-1.604-3.633-2.616-5.868-2.928l-0.325,2.316
		c1.729,0.244,3.302,1.024,4.545,2.266C20.567,11.749,21.335,13.235,21.616,14.87L21.616,14.87z M21.616,14.87"/>
	<path d="M25.218,4.857C22.558,2.197,19.193,0.518,15.479,0l-0.325,2.316c3.209,0.45,6.118,1.904,8.415,4.195
		c2.179,2.179,3.608,4.932,4.126,7.959L30,14.077C29.394,10.569,27.74,7.385,25.218,4.857L25.218,4.857z M25.218,4.857"/>
</g>
</svg>
