<?xml version="1.0" encoding="iso-8859-1"?>
<!-- Generator: Adobe Illustrator 21.0.2, SVG Export Plug-In . SVG Version: 6.00 Build 0)  -->
<svg version="1.1" id="&#x428;&#x430;&#x440;_1" xmlns="http://www.w3.org/2000/svg" xmlns:xlink="http://www.w3.org/1999/xlink"
	 x="0px" y="0px" viewBox="0 0 30 30" style="enable-background:new 0 0 30 30;" xml:space="preserve">
<path d="M24.994,21.561l-6.227-6.233l5.053-5.053c1.641,0.383,3.436-0.055,4.719-1.337c1.398-1.398,1.783-3.417,1.199-5.175
	L27.352,6.14c-0.839,0.845-2.231,0.816-3.107-0.061c-0.875-0.875-0.9-2.262-0.061-3.107l2.377-2.377
	c-1.756-0.59-3.769-0.207-5.175,1.197c-1.277,1.277-1.714,3.072-1.331,4.712l-5.053,5.06L9.949,6.51
	c0.377-1.641-0.061-3.436-1.339-4.719C7.212,0.387,5.193,0.004,3.435,0.594l2.377,2.377c0.839,0.845,0.816,2.232-0.061,3.107
	C4.877,6.955,3.49,6.979,2.644,6.14L0.267,3.762C-0.323,5.52,0.06,7.539,1.464,8.937c1.278,1.283,3.072,1.716,4.72,1.337
	l5.053,5.053l-6.227,6.227c-1.138-0.078-2.293,0.299-3.157,1.163c-1.593,1.593-1.593,4.171,0,5.759c1.588,1.586,4.166,1.586,5.754,0
	c0.862-0.864,1.241-2.025,1.168-3.157l6.227-6.227l6.227,6.227c-0.079,1.138,0.297,2.293,1.168,3.163
	c1.586,1.586,4.164,1.586,5.752,0c1.593-1.594,1.593-4.172,0-5.76C27.285,21.854,26.124,21.484,24.994,21.561L24.994,21.561z
	 M5.285,27.667l-2.075-0.553l-0.553-2.074l1.515-1.515l2.074,0.554l0.553,2.074L5.285,27.667z M26.787,27.121l-2.074,0.546
	l-1.515-1.513l0.554-2.069l2.074-0.553l1.513,1.515L26.787,27.121z M26.787,27.121"/>
</svg>
