<?xml version="1.0" encoding="iso-8859-1"?>
<!-- Generator: Adobe Illustrator 21.0.2, SVG Export Plug-In . SVG Version: 6.00 Build 0)  -->
<svg version="1.1" id="&#x428;&#x430;&#x440;_1" xmlns="http://www.w3.org/2000/svg" xmlns:xlink="http://www.w3.org/1999/xlink"
	 x="0px" y="0px" viewBox="0 0 30 30" style="enable-background:new 0 0 30 30;" xml:space="preserve">
<g>
	<g>
		<path d="M27.436,7.525c-2.997,0.141-2.046,3.608-4.731,3.87c0.008-0.205,0.012-0.412,0.012-0.622c0-0.166-0.133-0.302-0.299-0.306
			c-1.027-0.021-2.562-0.266-4.187-0.525c-1.913-0.305-3.891-0.62-5.328-0.62c-0.411,0-0.751,0.025-1.042,0.078
			c-2.74,0.489-4.84,3.098-6.87,5.619c-1.628,2.021-3.164,3.931-4.749,4.269C0.097,19.32-0.005,19.45,0,19.6
			c0.005,0.148,0.118,0.271,0.266,0.291c0.584,0.079,1.131,0.155,1.647,0.229l-1.607,2.357h2.736l0.975-2.047
			c0.711,0.107,1.351,0.208,1.932,0.298c0.51,0.08,0.973,0.152,1.402,0.216l-0.656,1.533h2.755v-1.252
			c0.732,0.079,1.399,0.12,2.111,0.12c0.355,0,0.712-0.011,1.096-0.032c0.601-0.033,1.288-0.107,2.012-0.248v1.412h2.435
			l-0.368-1.999c0.88-0.339,1.756-0.805,2.557-1.445c0.31-0.248,0.597-0.515,0.865-0.799c1.398,1.761,1.334,4.243,1.334,4.243h2.842
			c-0.062-2.147-1.928-4.594-2.998-5.826c0.442-0.769,0.779-1.624,1.008-2.565c2.25-0.766,4.446-2.983,5.41-3.313
			C28.77,10.425,30,10.68,30,9.44C30,7.932,28.334,7.484,27.436,7.525L27.436,7.525z M27.436,7.525"/>
	</g>
</g>
</svg>
