<?xml version="1.0" encoding="iso-8859-1"?>
<!-- Generator: Adobe Illustrator 21.0.2, SVG Export Plug-In . SVG Version: 6.00 Build 0)  -->
<svg version="1.1" id="&#x428;&#x430;&#x440;_1" xmlns="http://www.w3.org/2000/svg" xmlns:xlink="http://www.w3.org/1999/xlink"
	 x="0px" y="0px" viewBox="0 0 30 30" style="enable-background:new 0 0 30 30;" xml:space="preserve">
<g>
	<g>
		<path d="M29.478,20.877l-5.019,4.274v1.534c0,0.328-0.279,0.554-0.608,0.554h-3.348c-0.328,0-0.608-0.235-0.608-0.554v-3.441
			c0-0.181,0.093-0.373,0.235-0.466l6.132-3.809l0.608-8.088c0-0.701,0.554-1.255,1.255-1.255c0.701,0,1.255,0.554,1.255,1.206
			l0.608,8.739C30.037,20.279,29.949,20.504,29.478,20.877L29.478,20.877z M5.402,17.863v-6.044c0-0.608,0.093-1.024,0.373-1.627
			L8.75,4.011c0.328-0.701,1.255-1.299,2.044-1.299h8.416c0.833,0,1.77,0.554,2.088,1.299l2.975,6.181
			c0.28,0.608,0.373,1.069,0.373,1.627v6.048c0,0.235-0.235,0.466-0.466,0.466h-2.368c-0.279,0-0.466-0.235-0.466-0.466v-1.495
			H8.701v1.49c0,0.235-0.235,0.466-0.466,0.466H5.868C5.637,18.328,5.402,18.093,5.402,17.863L5.402,17.863z M21.533,11.584
			c-0.833,0-1.49,0.701-1.49,1.49c0,0.789,0.652,1.49,1.49,1.49c0.833,0,1.49-0.652,1.49-1.49
			C23.023,12.236,22.366,11.584,21.533,11.584L21.533,11.584z M8.098,10.005H21.95l-2.044-4.274
			c-0.417-0.833-0.789-1.025-1.627-1.025H11.73c-0.833,0-1.206,0.181-1.578,1.025L8.098,10.005z M7.029,13.069
			c0,0.789,0.652,1.49,1.49,1.49c0.838,0,1.49-0.652,1.49-1.49c0-0.838-0.652-1.49-1.49-1.49C7.681,11.579,7.029,12.28,7.029,13.069
			L7.029,13.069z M9.911,22.828l-6.132-3.809l-0.608-8.088c0.044-0.745-0.554-1.299-1.255-1.299c-0.701,0-1.299,0.554-1.299,1.25
			L0.01,19.627c-0.044,0.701,0.044,0.926,0.51,1.299L5.539,25.2v1.534c0,0.329,0.279,0.554,0.608,0.554h3.397
			c0.328,0,0.608-0.235,0.608-0.554v-3.441C10.142,23.112,10.048,22.931,9.911,22.828L9.911,22.828z M9.911,22.828"/>
	</g>
</g>
</svg>
