<?xml version="1.0" encoding="iso-8859-1"?>
<!-- Generator: Adobe Illustrator 21.0.2, SVG Export Plug-In . SVG Version: 6.00 Build 0)  -->
<svg version="1.1" id="&#x428;&#x430;&#x440;_1" xmlns="http://www.w3.org/2000/svg" xmlns:xlink="http://www.w3.org/1999/xlink"
	 x="0px" y="0px" viewBox="0 0 30 30" style="enable-background:new 0 0 30 30;" xml:space="preserve">
<g>
	<path d="M28.745,14.073L15.458,0.787C14.935,0.264,14.251,0,13.563,0c-0.684,0-1.372,0.264-1.895,0.787L4.393,8.06
		c-1.047,1.046-1.047,2.776,0,3.825l1.207,1.237h2.783l-2.599-2.628c-0.181-0.184-0.207-0.411-0.207-0.523
		c0-0.109,0.026-0.329,0.207-0.513l0.961-0.931l4.565,4.595h4.382L8.935,6.333l4.126-4.141c0.18-0.181,0.394-0.214,0.503-0.214
		c0.112,0,0.323,0.023,0.507,0.204l13.286,13.283c0.181,0.184,0.207,0.395,0.207,0.507c0,0.109-0.045,0.319-0.227,0.504
		l-0.754,0.733v2.782l2.145-2.125C29.774,16.816,29.794,15.118,28.745,14.073L28.745,14.073z M28.529,14.282"/>
	<path d="M22.225,14.806h-19c-1.511,0-2.747,1.236-2.747,2.747v7.358h24.421v-7.345C24.899,16.036,23.72,14.806,22.225,14.806
		L22.225,14.806z M7.324,21.937c-0.523,0-1-0.207-1.349-0.543c-0.352,0.336-0.825,0.543-1.348,0.543
		c-1.08,0-1.951-0.872-1.951-1.948c0-1.079,0.872-1.95,1.951-1.95c0.523,0,1,0.207,1.348,0.543c0.349-0.336,0.826-0.543,1.349-0.543
		c1.079,0,1.95,0.872,1.95,1.95C9.275,21.065,8.403,21.937,7.324,21.937L7.324,21.937z M7.324,21.937"/>
	<path d="M0.478,27.538c0.281,1.48,1.547,2.688,3.028,2.426h18.789c1.48,0.262,2.648-0.945,2.604-2.426v-0.101H0.478V27.538z
		 M0.758,27.538"/>
</g>
</svg>
