<?xml version="1.0" encoding="iso-8859-1"?>
<!-- Generator: Adobe Illustrator 21.0.2, SVG Export Plug-In . SVG Version: 6.00 Build 0)  -->
<svg version="1.1" id="&#x428;&#x430;&#x440;_1" xmlns="http://www.w3.org/2000/svg" xmlns:xlink="http://www.w3.org/1999/xlink"
	 x="0px" y="0px" viewBox="0 0 30 30" style="enable-background:new 0 0 30 30;" xml:space="preserve">
<g>
	<path d="M29.615,12.005c-0.187-1.639-4.594,0-4.594,0l-0.258,2.327c-0.099-0.053-0.194-0.106-0.297-0.152l-1.115-4.859
		c-0.406-2.31-2.15-4.014-4.696-3.765h-6.533c-0.042,0.111-0.184,0.904-0.184,0.904h6.663c1.47,0,2.813,0.946,3.18,2.503l1.183,4.74
		c-0.073-0.004-0.15-0.011-0.223-0.011H9.042v4.52h9.039v0.904H9.946v0.904h8.136v0.904H9.946l0.003,3.616h9.036v2.486
		c0,1.01,1.215,1.832,2.714,1.832c1.496,0,2.71-0.819,2.71-1.832v-2.809c0,0,2.003-1.589,1.808-2.854v-4.448
		c0.196-0.985-0.359-1.861-1.217-2.437l4.616-0.247C29.615,14.23,29.798,13.64,29.615,12.005L29.615,12.005z M24.409,20.923h-5.424
		v-2.712h5.424V20.923z M24.325,20.497"/>
	<rect x="9.042" y="20.019" width="0.904" height="0.904"/>
	<rect x="9.042" y="18.211" width="0.904" height="0.904"/>
	<path d="M11.13,4.692C11.126,2.683,9.042,0,9.042,0v4.333L5.716,5.886L2.714,4.329V0c0,0-2.411,2.683-2.411,4.692
		c0,2.104,2.411,4.827,2.411,4.827v17.771c0,0.749,0.304,1.424,0.794,1.919C4,29.701,4.678,29.996,5.427,30
		c1.492,0,2.707-1.211,2.71-2.709V9.407C8.138,9.407,11.126,6.712,11.13,4.692L11.13,4.692z M6.387,28.499
		c-0.381,0.381-0.999,0.381-1.38,0c-0.378-0.381-0.378-0.996,0.004-1.377c0.381-0.381,0.999-0.381,1.377-0.004
		C6.769,27.499,6.769,28.117,6.387,28.499L6.387,28.499z M6.387,28.499"/>
</g>
</svg>
