<?xml version="1.0" encoding="iso-8859-1"?>
<!-- Generator: Adobe Illustrator 21.0.2, SVG Export Plug-In . SVG Version: 6.00 Build 0)  -->
<svg version="1.1" id="&#x428;&#x430;&#x440;_1" xmlns="http://www.w3.org/2000/svg" xmlns:xlink="http://www.w3.org/1999/xlink"
	 x="0px" y="0px" viewBox="0 0 30 30" style="enable-background:new 0 0 30 30;" xml:space="preserve">
<g>
	<path d="M17.39,20.172C17.296,20.057,17.166,20,17,20H8v-6h3c0.271,0,0.505-0.099,0.703-0.297C11.901,13.505,12,13.271,12,13
		c0-0.25-0.079-0.464-0.235-0.641L6.766,6.359C6.568,6.13,6.312,6.015,6,6.015c-0.312,0-0.567,0.115-0.765,0.344l-5,6.001
		C0.078,12.536,0,12.75,0,13c0,0.271,0.099,0.505,0.297,0.703C0.494,13.901,0.729,14,1,14h3v9.375c0,0.032,0.005,0.092,0.015,0.181
		c0.011,0.088,0.026,0.148,0.047,0.179c0.022,0.032,0.05,0.073,0.086,0.125c0.036,0.052,0.083,0.089,0.14,0.11
		C4.346,23.99,4.417,24,4.5,24h15c0.135,0,0.253-0.05,0.351-0.148C19.95,23.753,20,23.636,20,23.5c0-0.104-0.037-0.213-0.11-0.328
		L17.39,20.172z M17.39,20.172"/>
	<path d="M29.703,16.297C29.505,16.099,29.271,16,29,16h-3V6.626c0-0.032-0.005-0.092-0.016-0.18
		c-0.01-0.089-0.026-0.149-0.047-0.18c-0.021-0.032-0.049-0.073-0.085-0.126c-0.036-0.052-0.083-0.088-0.14-0.11
		C25.653,6.01,25.584,6,25.499,6H10.5c-0.136,0-0.253,0.05-0.352,0.149C10.05,6.248,10,6.364,10,6.5c0,0.114,0.036,0.218,0.11,0.313
		l2.499,2.999c0.094,0.125,0.225,0.188,0.391,0.188h9v6h-3c-0.271,0-0.506,0.099-0.703,0.297C18.099,16.495,18,16.73,18,17
		c0,0.25,0.079,0.464,0.235,0.641l5,6c0.208,0.24,0.463,0.36,0.765,0.36c0.303,0,0.557-0.12,0.766-0.36l4.999-6
		C29.921,17.464,30,17.25,30,17C30,16.73,29.901,16.495,29.703,16.297L29.703,16.297z M29.703,16.297"/>
</g>
</svg>
