<?xml version="1.0" encoding="iso-8859-1"?>
<!-- Generator: Adobe Illustrator 21.0.2, SVG Export Plug-In . SVG Version: 6.00 Build 0)  -->
<svg version="1.1" id="&#x428;&#x430;&#x440;_1" xmlns="http://www.w3.org/2000/svg" xmlns:xlink="http://www.w3.org/1999/xlink"
	 x="0px" y="0px" viewBox="0 0 30 30" style="enable-background:new 0 0 30 30;" xml:space="preserve">
<g>
	<path d="M9.515,20.486c0.779,0.779,1.59,1.483,2.417,2.109L0,29.999l7.409-11.934C8.032,18.885,8.728,19.696,9.515,20.486z"/>
	<path d="M29.315,10.496c-0.787,0.787-2.122,0.865-3.608,0.36l-3.968,3.968c1.994,3.24,2.469,6.395,0.912,7.954
		c-0.631,0.631-1.522,0.928-2.576,0.928c-1.94,0-4.427-1.014-6.833-2.834c-0.055-0.039-0.107-0.083-0.159-0.123
		c-0.172-0.133-0.342-0.269-0.514-0.409c-0.068-0.057-0.136-0.112-0.201-0.169c-0.164-0.138-0.326-0.279-0.485-0.425
		c-0.065-0.055-0.128-0.11-0.19-0.169c-0.219-0.201-0.435-0.407-0.649-0.62c-0.245-0.245-0.48-0.493-0.706-0.743
		c-0.141-0.154-0.274-0.31-0.407-0.467c-0.073-0.086-0.149-0.169-0.222-0.258c-0.172-0.209-0.336-0.417-0.498-0.628
		c-0.021-0.026-0.042-0.052-0.06-0.078C6.332,13.059,5.43,9.143,7.224,7.35c0.631-0.631,1.522-0.931,2.576-0.931
		c1.551,0,3.449,0.652,5.381,1.838l3.965-3.963c-0.506-1.486-0.428-2.821,0.36-3.611c1.478-1.476,4.872-0.48,7.581,2.229
		C29.797,5.624,30.795,9.018,29.315,10.496z"/>
</g>
</svg>
