<?xml version="1.0" encoding="iso-8859-1"?>
<!-- Generator: Adobe Illustrator 21.0.2, SVG Export Plug-In . SVG Version: 6.00 Build 0)  -->
<svg version="1.1" id="&#x428;&#x430;&#x440;_1" xmlns="http://www.w3.org/2000/svg" xmlns:xlink="http://www.w3.org/1999/xlink"
	 x="0px" y="0px" viewBox="0 0 30 30" style="enable-background:new 0 0 30 30;" xml:space="preserve">
<g>
	<path d="M28.747,17.171c0.113-0.708,0.171-1.432,0.171-2.171c0-7.689-6.23-13.919-13.918-13.919c-0.739,0-1.465,0.06-2.173,0.171
		C11.545,0.459,10.032,0,8.412,0C3.766,0,0,3.765,0,8.412c0,1.621,0.459,3.131,1.252,4.417C1.143,13.538,1.082,14.26,1.082,15
		c0,7.687,6.23,13.918,13.916,13.918c0.739,0,1.465-0.057,2.173-0.17C18.455,29.54,19.968,30,21.588,30
		C26.234,30,30,26.234,30,21.589C30,19.968,29.541,18.455,28.747,17.171L28.747,17.171z M21.608,21.33
		c-0.589,0.848-1.453,1.51-2.585,1.985c-1.132,0.479-2.47,0.716-4.017,0.716c-1.853,0-3.385-0.324-4.597-0.98
		c-0.859-0.469-1.557-1.097-2.093-1.881c-0.539-0.785-0.81-1.553-0.81-2.303c0-0.441,0.169-0.825,0.496-1.139
		c0.332-0.316,0.758-0.474,1.263-0.474c0.413,0,0.767,0.124,1.056,0.371c0.287,0.246,0.528,0.604,0.723,1.076
		c0.236,0.548,0.493,1.006,0.765,1.37c0.27,0.361,0.651,0.662,1.144,0.898c0.488,0.236,1.138,0.353,1.95,0.353
		c1.113,0,2.012-0.239,2.698-0.715c0.692-0.478,1.024-1.061,1.024-1.766c0-0.562-0.179-1.007-0.545-1.354
		c-0.371-0.353-0.85-0.622-1.444-0.807c-0.596-0.19-1.397-0.39-2.399-0.602c-1.346-0.293-2.472-0.635-3.385-1.029
		c-0.913-0.394-1.641-0.933-2.18-1.615c-0.54-0.687-0.809-1.541-0.809-2.554c0-0.965,0.285-1.829,0.853-2.58
		c0.57-0.754,1.393-1.331,2.466-1.732c1.069-0.402,2.329-0.602,3.773-0.602c1.152,0,2.152,0.132,2.996,0.399
		c0.841,0.267,1.545,0.62,2.105,1.063c0.558,0.443,0.97,0.908,1.229,1.398c0.26,0.49,0.39,0.97,0.39,1.437
		c0,0.435-0.167,0.83-0.496,1.175c-0.329,0.347-0.749,0.522-1.239,0.521c-0.442,0-0.789-0.101-1.03-0.317
		c-0.235-0.21-0.48-0.542-0.747-1.006c-0.337-0.646-0.739-1.15-1.208-1.512c-0.457-0.353-1.209-0.538-2.257-0.536
		c-0.97,0-1.745,0.199-2.33,0.586c-0.589,0.394-0.871,0.85-0.872,1.385c0.002,0.335,0.098,0.618,0.291,0.859
		c0.197,0.244,0.472,0.456,0.824,0.635c0.353,0.18,0.711,0.32,1.071,0.422c0.365,0.103,0.97,0.252,1.81,0.449
		c1.053,0.228,2.01,0.482,2.869,0.758c0.858,0.278,1.589,0.614,2.194,1.012c0.609,0.399,1.086,0.906,1.426,1.52
		c0.342,0.614,0.511,1.364,0.511,2.246C22.493,19.528,22.197,20.483,21.608,21.33L21.608,21.33z M21.608,21.33"/>
</g>
</svg>
