<?xml version="1.0" encoding="iso-8859-1"?>
<!-- Generator: Adobe Illustrator 21.0.2, SVG Export Plug-In . SVG Version: 6.00 Build 0)  -->
<svg version="1.1" id="&#x428;&#x430;&#x440;_1" xmlns="http://www.w3.org/2000/svg" xmlns:xlink="http://www.w3.org/1999/xlink"
	 x="0px" y="0px" viewBox="0 0 30 30" style="enable-background:new 0 0 30 30;" xml:space="preserve">
<g>
	<g>
		<path style="fill:#12100C;" d="M11.998,18.005H4.992v-1.999h0.498h6.004h0.498v1.999H11.998L11.998,18.005z M11.998,26.512H4.992
			v-4.004h7.006V26.512L11.998,26.512z M16.003,19.506h-1.501v-1.003c0-0.276-0.223-0.498-0.498-0.498h-1.003v-2.503
			c0-0.276-0.223-0.498-0.498-0.498h-0.498V4.995h-0.498H5.496H4.998v10.008H4.5c-0.276,0-0.498,0.223-0.498,0.498v2.503H2.993
			c-0.276,0-0.498,0.223-0.498,0.498v1.003H0.994c-0.276,0-0.498,0.223-0.498,0.498v1.999c0,0.276,0.223,0.498,0.498,0.498h3.002
			v4.503c0,0.276,0.223,0.498,0.498,0.498h1.501v1.999C5.995,29.777,6.217,30,6.493,30c0.276,0,0.498-0.223,0.498-0.498v-1.999
			h3.002v1.999c0,0.276,0.223,0.498,0.498,0.498s0.498-0.223,0.498-0.498v-1.999h1.501c0.276,0,0.498-0.223,0.498-0.498v-4.497
			h3.002c0.276,0,0.498-0.223,0.498-0.498V20.01C16.501,19.728,16.278,19.506,16.003,19.506L16.003,19.506z"/>
		<path style="fill:#12100C;" d="M26.509,10.002h-2.503v1.003h1.999c0.276,0,0.498,0.223,0.498,0.498
			c0,0.276-0.223,0.498-0.498,0.498h-1.999v1.003h1.003c0.276,0,0.498,0.223,0.498,0.498c0,0.276-0.223,0.498-0.498,0.498h-1.003
			v4.004h-1.003V14H22c-0.276,0-0.498-0.223-0.498-0.498c0-0.276,0.223-0.498,0.498-0.498h1.003v-1.003h-1.999
			c-0.276,0-0.498-0.223-0.498-0.498c0-0.276,0.223-0.498,0.498-0.498h1.999v-1.003h-2.503c-0.276,0-0.498-0.223-0.498-0.498
			c0-0.276,0.223-0.498,0.498-0.498h6.004c0.276,0,0.498,0.223,0.498,0.498C27.001,9.779,26.784,10.002,26.509,10.002L26.509,10.002
			z M26.004,25.011h-5.001v-6.004h5.001V25.011L26.004,25.011z M23.507,27.01c-0.827,0-1.642-0.399-2.146-1.003h4.286
			C25.149,26.611,24.334,27.01,23.507,27.01L23.507,27.01z M27.505,7.03c-1.272-1.137-2.978-1.683-4.684-1.489
			c-2.744,0.305-4.966,2.515-5.277,5.259c-0.188,1.63,0.276,3.219,1.296,4.479c0.75,0.926,1.167,2.075,1.167,3.23v7.006
			c0,0.006,0.006,0.012,0.006,0.018c0,0.053,0.006,0.1,0.023,0.152c0,0.006,0.006,0.012,0.006,0.018s0.006,0.012,0.006,0.018
			c0.492,1.331,1.935,2.298,3.453,2.298c1.518,0,2.961-0.962,3.453-2.298c0.006-0.006,0.006-0.012,0.012-0.018
			c0-0.006,0.006-0.012,0.006-0.018c0.018-0.047,0.023-0.1,0.023-0.152c0-0.006,0.006-0.012,0.006-0.018v-7.012l0,0
			c0-1.173,0.405-2.304,1.132-3.189c0.885-1.073,1.372-2.427,1.372-3.811C29.51,9.797,28.778,8.167,27.505,7.03L27.505,7.03z"/>
	</g>
	<path style="fill:#12100C;" d="M11.5,3.998h0.469c-0.129-1.173-0.721-1.999-1.472-1.999H9.999V0.997C9.999,0.446,9.553,0,9.002,0H8
		C7.449,0,7.003,0.446,7.003,0.997v1.003H6.505c-0.75,0-1.343,0.833-1.472,1.999h0.469H11.5L11.5,3.998z"/>
</g>
</svg>
