<?xml version="1.0" encoding="iso-8859-1"?>
<!-- Generator: Adobe Illustrator 21.0.2, SVG Export Plug-In . SVG Version: 6.00 Build 0)  -->
<svg version="1.1" id="&#x428;&#x430;&#x440;_1" xmlns="http://www.w3.org/2000/svg" xmlns:xlink="http://www.w3.org/1999/xlink"
	 x="0px" y="0px" viewBox="0 0 30 30" style="enable-background:new 0 0 30 30;" xml:space="preserve">
<g>
	<g>
		<path d="M20.466,20.03H9.534l-0.97,2.356l-0.168,0.408h2.108c-0.003-0.018-0.006-0.037-0.006-0.056v-1.022
			c0-0.198,0.161-0.358,0.358-0.358c0.198,0,0.358,0.16,0.358,0.358v1.022c0,0.019-0.003,0.038-0.006,0.056h3.438
			c-0.003-0.018-0.006-0.037-0.006-0.056v-1.022c0-0.198,0.16-0.358,0.358-0.358c0.198,0,0.358,0.16,0.358,0.358v1.022
			c0,0.019-0.003,0.038-0.006,0.056h3.438c-0.003-0.018-0.006-0.037-0.006-0.056v-1.022c0-0.198,0.16-0.358,0.358-0.358
			c0.198,0,0.358,0.16,0.358,0.358v1.022c0,0.019-0.003,0.038-0.006,0.056h2.108l-0.168-0.408L20.466,20.03z M20.466,20.03"/>
		<path d="M29.792,10.835c-0.072-0.207-0.324-0.369-0.535-0.369h-2.741c-0.211,0-0.464,0.162-0.535,0.369
			c-0.098,0.285-0.161,0.527-0.19,0.757c-1.206-2.322-2.541-4.905-2.541-4.905c-0.131-0.367-0.448-0.636-0.832-0.705
			c-2.469-0.447-4.965-0.673-7.418-0.673c-2.452,0-4.948,0.226-7.419,0.673C7.198,6.051,6.881,6.32,6.75,6.686
			c0,0-1.335,2.584-2.541,4.906c-0.029-0.23-0.091-0.472-0.189-0.757c-0.072-0.208-0.324-0.369-0.535-0.369H0.743
			c-0.211,0-0.464,0.162-0.535,0.369c-0.278,0.808-0.278,1.271,0,2.079c0.071,0.208,0.324,0.369,0.535,0.369h2.736
			c0,0.034,0.003,0.068,0.006,0.102c-0.577,0.175-0.997,0.711-0.997,1.345v9.286c0,0.373,0.303,0.675,0.676,0.675h3.4
			c0.373,0,0.676-0.303,0.676-0.675v-1.631h0.55l1.173-2.85c0.055-0.134,0.186-0.222,0.331-0.222h11.412
			c0.145,0,0.276,0.088,0.331,0.222l1.173,2.85h0.55v1.631c0,0.373,0.302,0.675,0.675,0.675h3.4c0.373,0,0.675-0.303,0.675-0.675
			V14.73c0-0.634-0.42-1.17-0.997-1.345c0.004-0.034,0.006-0.068,0.006-0.102h2.736c0.211,0,0.464-0.161,0.535-0.369
			C30.07,12.106,30.069,11.643,29.792,10.835L29.792,10.835z M8.257,7.482c0,0,1.633-0.414,6.743-0.414
			c5.11,0,6.743,0.414,6.743,0.414l2.396,5.801H5.861L8.257,7.482z M5.279,17.52v-1.906h4.128l1.227,1.906H5.279z M24.721,17.52
			h-5.354l1.227-1.906h4.128V17.52z M24.721,17.52"/>
	</g>
</g>
</svg>
