<?xml version="1.0" encoding="iso-8859-1"?>
<!-- Generator: Adobe Illustrator 21.0.2, SVG Export Plug-In . SVG Version: 6.00 Build 0)  -->
<svg version="1.1" id="&#x428;&#x430;&#x440;_1" xmlns="http://www.w3.org/2000/svg" xmlns:xlink="http://www.w3.org/1999/xlink"
	 x="0px" y="0px" viewBox="0 0 30 30" style="enable-background:new 0 0 30 30;" xml:space="preserve">
<g>
	<g>
		<path d="M23.898,19.83c-1.358,0-2.635,0.529-3.595,1.49c-0.266,0.266-0.497,0.559-0.695,0.869l-8.787-5.333
			c0.233-0.582,0.365-1.215,0.365-1.878c0-0.665-0.132-1.296-0.362-1.879l8.787-5.293c0.904,1.418,2.485,2.364,4.288,2.364
			c2.803,0,5.085-2.282,5.085-5.085C28.983,2.282,26.702,0,23.898,0s-5.085,2.282-5.085,5.085c0,0.638,0.124,1.249,0.34,1.81
			l-8.801,5.3C9.444,10.81,7.879,9.894,6.102,9.894c-2.803,0-5.085,2.279-5.085,5.085c0,2.804,2.282,5.085,5.085,5.085
			c1.778,0,3.342-0.918,4.251-2.304l8.799,5.341c-0.218,0.573-0.338,1.184-0.338,1.815c0,1.358,0.529,2.637,1.49,3.595
			c0.96,0.961,2.237,1.49,3.595,1.49c1.358,0,2.635-0.529,3.595-1.49c0.961-0.958,1.49-2.237,1.49-3.595
			c0-1.358-0.529-2.634-1.49-3.595C26.533,20.359,25.257,19.83,23.898,19.83L23.898,19.83z M23.898,19.83"/>
	</g>
</g>
</svg>
