<?xml version="1.0" encoding="iso-8859-1"?>
<!-- Generator: Adobe Illustrator 21.0.2, SVG Export Plug-In . SVG Version: 6.00 Build 0)  -->
<svg version="1.1" id="&#x428;&#x430;&#x440;_1" xmlns="http://www.w3.org/2000/svg" xmlns:xlink="http://www.w3.org/1999/xlink"
	 x="0px" y="0px" viewBox="0 0 30 30" style="enable-background:new 0 0 30 30;" xml:space="preserve">
<g>
	
		<line style="stroke:#FFFFFF;stroke-width:0.6415;stroke-linecap:round;stroke-miterlimit:10;" x1="12.066" y1="7.702" x2="13.429" y2="7.702"/>
	<path d="M7.968,12.705C3.575,12.705,0,15.877,0,20.27c0,2.106,0.836,4.029,2.353,5.418c1.474,1.348,3.468,2.091,5.615,2.091
		c2.147,0,4.141-0.742,5.615-2.091c1.517-1.388,2.353-3.312,2.353-5.418C15.935,15.877,12.361,12.705,7.968,12.705L7.968,12.705z
		 M7.968,23.665c-1.872,0-3.395-1.523-3.395-3.394c0-1.872,1.523-3.395,3.395-3.395c1.872,0,3.394,1.523,3.394,3.395
		C11.362,22.142,9.839,23.665,7.968,23.665L7.968,23.665z M7.968,23.665"/>
	<path d="M24.359,16.822c-3.11,0-5.64,2.53-5.641,5.64c0,1.491,0.592,2.853,1.666,3.836c1.043,0.955,2.455,1.48,3.975,1.48
		c1.52,0,2.932-0.526,3.975-1.48C29.409,25.316,30,23.953,30,22.462C30,19.352,27.47,16.822,24.359,16.822L24.359,16.822z
		 M24.359,24.855c-1.319,0-2.392-1.073-2.392-2.392c0-1.319,1.073-2.392,2.392-2.392c1.319,0,2.392,1.073,2.392,2.392
		C26.751,23.781,25.678,24.855,24.359,24.855L24.359,24.855z M24.359,24.855"/>
	<path d="M14.17,14.226c1.679,1.562,2.604,3.709,2.604,6.044c0,0.43-0.032,0.854-0.094,1.268h1.265
		c0.45-3.137,3.154-5.556,6.413-5.556c1.861,0,3.542,0.789,4.725,2.051c1.375-2.404,0.603-7.765-1.893-7.765h-1.453V7.004
		c0-0.476-0.386-0.862-0.862-0.862c-0.476,0-0.862,0.386-0.862,0.862v3.264H18.06c-0.425-1.993-0.976-4.603-1.226-5.843
		c-0.445-2.204-1.886-2.205-2.664-2.203H5.458c-0.565,0-2.068,0-2.246,2.079c-0.113,1.315-0.711,8.02-0.717,8.087
		c-0.032,0.355,0.231,0.669,0.586,0.7c0.16,0.014,0.312-0.032,0.433-0.119c0.007-0.003,0.013-0.005,0.02-0.008
		c1.322-0.714,2.841-1.095,4.434-1.095C10.332,11.866,12.534,12.704,14.17,14.226L14.17,14.226z M4.497,4.411
		c0.075-0.865,0.332-0.899,0.96-0.899h3.885v6.756H3.979C4.166,8.17,4.426,5.236,4.497,4.411L4.497,4.411z M15.568,4.68
		c0.178,0.881,0.724,3.481,1.172,5.588h-6.366V3.512h3.795C14.893,3.513,15.333,3.512,15.568,4.68L15.568,4.68z M15.568,4.68"/>
</g>
</svg>
