<?xml version="1.0" encoding="utf-8"?>
<!-- Generator: Adobe Illustrator 21.0.1, SVG Export Plug-In . SVG Version: 6.00 Build 0)  -->
<svg version="1.1" id="Шар_1" xmlns="http://www.w3.org/2000/svg" xmlns:xlink="http://www.w3.org/1999/xlink" x="0px" y="0px"
	 viewBox="0 0 30 20.8" style="enable-background:new 0 0 30 20.8;" xml:space="preserve">
<style type="text/css">
	.st0{fill:#12100C;}
</style>
<g>
	<path class="st0" d="M23.5,16.9c-0.8,0-1.5-0.7-1.5-1.5s0.7-1.5,1.5-1.5s1.5,0.7,1.5,1.5S24.3,16.9,23.5,16.9L23.5,16.9z
		 M23.5,12.9c-1.4,0-2.5,1.1-2.5,2.5c0,1.4,1.1,2.5,2.5,2.5c1.4,0,2.5-1.1,2.5-2.5C26,14,24.9,12.9,23.5,12.9L23.5,12.9z"/>
	<path class="st0" d="M5.4,8.4C5.2,8.4,5.1,8.1,5.2,8C5.6,7.4,6,7,6.6,6.6C6.7,6.4,7,6.6,7,6.8l0,1.4c0,0.1-0.1,0.3-0.3,0.3H5.4
		L5.4,8.4z M8,8.1L8,6C8,5.9,8,5.8,8.1,5.7C8.6,5.6,9,5.5,9.6,5.4c1.1-0.2,2.2-0.2,3.2-0.2c0.1,0,0.2,0.1,0.2,0.3v2.7
		c0,0.1-0.1,0.3-0.3,0.3H8.2C8.1,8.4,8,8.3,8,8.1L8,8.1z M14,8.1V5.5c0-0.1,0.1-0.3,0.3-0.3c2.7,0.2,4.9,1.1,6.7,2.7
		c0.2,0.2,0.1,0.4-0.2,0.4h-6.5C14.1,8.4,14,8.3,14,8.1L14,8.1z M0.5,12.9c-0.3,0-0.5,0.2-0.5,0.5v2c0,0.3,0.2,0.5,0.5,0.5h2
		c0.3,0,0.5-0.2,0.5-0.5c0-1.9,1.6-3.5,3.5-3.5c1.9,0,3.5,1.6,3.5,3.5c0,0,0,0,0,0c0,0.3,0.2,0.5,0.5,0.5h9c0.3,0,0.5-0.2,0.5-0.5
		c0-1.9,1.6-3.5,3.5-3.5c1.9,0,3.5,1.6,3.5,3.5c0,0,0,0,0,0c0,0.3,0.2,0.5,0.5,0.5h2c0.3,0,0.5-0.2,0.5-0.5v-2
		c0-0.3-0.2-0.5-0.5-0.5l-0.1-1.2c0-0.8-0.4-1.5-1.1-2c-1.3-0.8-3.5-1.3-5.6-1.3c-2.9-3.5-7.3-4.8-13.3-4c0,0,0,0,0,0
		C6.2,4.9,4.7,6.7,3.7,8.5L0.8,9.4C0.6,9.5,0.5,9.6,0.5,9.9V12.9L0.5,12.9z"/>
	<path class="st0" d="M6.5,16.9c-0.8,0-1.5-0.7-1.5-1.5s0.7-1.5,1.5-1.5S8,14.5,8,15.4S7.3,16.9,6.5,16.9L6.5,16.9z M6.5,12.9
		C5.1,12.9,4,14,4,15.4c0,1.4,1.1,2.5,2.5,2.5S9,16.7,9,15.4C9,14,7.9,12.9,6.5,12.9L6.5,12.9z"/>
</g>
</svg>
