<?xml version="1.0" encoding="iso-8859-1"?>
<!-- Generator: Adobe Illustrator 21.0.2, SVG Export Plug-In . SVG Version: 6.00 Build 0)  -->
<svg version="1.1" id="&#x428;&#x430;&#x440;_1" xmlns="http://www.w3.org/2000/svg" xmlns:xlink="http://www.w3.org/1999/xlink"
	 x="0px" y="0px" viewBox="0 0 30 30" style="enable-background:new 0 0 30 30;" xml:space="preserve">
<path d="M21.312,0H8.688C7.482,0,6.505,0.983,6.505,2.184v25.633C6.505,29.023,7.482,30,8.688,30h12.624
	c1.207,0,2.184-0.977,2.184-2.184V2.184C23.495,0.983,22.518,0,21.312,0L21.312,0z M11.886,1.33h6.228
	c0.16,0,0.288,0.235,0.288,0.523c0,0.294-0.128,0.529-0.288,0.529h-6.228c-0.161,0-0.284-0.235-0.284-0.529
	C11.602,1.565,11.724,1.33,11.886,1.33L11.886,1.33z M15.003,27.842c-0.769,0-1.399-0.624-1.399-1.392
	c0-0.769,0.63-1.394,1.399-1.394c0.763,0,1.387,0.624,1.387,1.394C16.39,27.218,15.765,27.842,15.003,27.842L15.003,27.842z
	 M21.856,23.065H8.143V3.69h13.713V23.065z M21.856,23.065"/>
</svg>
