<?xml version="1.0" encoding="iso-8859-1"?>
<!-- Generator: Adobe Illustrator 21.0.2, SVG Export Plug-In . SVG Version: 6.00 Build 0)  -->
<svg version="1.1" id="&#x428;&#x430;&#x440;_1" xmlns="http://www.w3.org/2000/svg" xmlns:xlink="http://www.w3.org/1999/xlink"
	 x="0px" y="0px" viewBox="0 0 30 30" style="enable-background:new 0 0 30 30;" xml:space="preserve">
<path d="M15,0C6.72,0,0,6.72,0,15c0,8.28,6.72,15,15,15c8.28,0,15-6.72,15-15C30,6.72,23.28,0,15,0z M22.61,20.7
	c0.52,0.53,0.52,1.38,0,1.91c-0.53,0.52-1.38,0.52-1.91,0L15,16.9l-5.7,5.71c-0.53,0.52-1.38,0.52-1.91,0
	c-0.52-0.53-0.52-1.38,0-1.91L13.1,15L7.39,9.3c-0.52-0.53-0.52-1.38,0-1.91c0.53-0.52,1.38-0.52,1.91,0L15,13.1l5.7-5.71
	c0.53-0.52,1.38-0.52,1.91,0c0.52,0.53,0.52,1.38,0,1.91L16.9,15L22.61,20.7z"/>
</svg>
