<?xml version="1.0" encoding="iso-8859-1"?>
<!-- Generator: Adobe Illustrator 21.0.2, SVG Export Plug-In . SVG Version: 6.00 Build 0)  -->
<svg version="1.1" id="&#x428;&#x430;&#x440;_1" xmlns="http://www.w3.org/2000/svg" xmlns:xlink="http://www.w3.org/1999/xlink"
	 x="0px" y="0px" viewBox="0 0 30 30" style="enable-background:new 0 0 30 30;" xml:space="preserve">
<g>
	<path d="M15.476,19.355l-3.77-3.303L0.938,25.278c0.391,0.372,0.913,0.595,1.498,0.595h26.069c0.582,0,1.104-0.223,1.495-0.595
		l-10.768-9.226L15.476,19.355z M15.476,18.861"/>
	<path d="M30,4.722c-0.381-0.372-0.913-0.595-1.495-0.595H2.435c-0.574,0-1.106,0.223-1.498,0.595l14.538,12.456L30,4.722z
		 M30,4.228"/>
	<path d="M0,5.543v18.064l10.512-8.933L0,5.543z M0.247,5.543"/>
	<path d="M19.39,14.674l10.512,8.933V5.532L19.39,14.674z M20.178,14.674"/>
</g>
</svg>
