<?xml version="1.0" encoding="iso-8859-1"?>
<!-- Generator: Adobe Illustrator 21.0.2, SVG Export Plug-In . SVG Version: 6.00 Build 0)  -->
<svg version="1.1" id="&#x428;&#x430;&#x440;_1" xmlns="http://www.w3.org/2000/svg" xmlns:xlink="http://www.w3.org/1999/xlink"
	 x="0px" y="0px" viewBox="0 0 30 30" style="enable-background:new 0 0 30 30;" xml:space="preserve">
<g>
	<path d="M19.263,19.249c1.674-1.242,2.865-2.401,2.878-2.41c8.901-8.9,7.846-15.739,7.797-16.029
		c-0.019-0.11-0.104-0.2-0.211-0.224c-0.02-0.002-0.462-0.101-1.267-0.101c-2.444,0-7.514,0.862-13.996,6.63
		c-1.127,1.002-2.136,2.02-3.005,3.024l-4.619,0.826c-0.058,0.01-0.111,0.038-0.152,0.082l-3.507,3.682
		c-0.065,0.07-0.091,0.164-0.07,0.256c0.022,0.091,0.086,0.166,0.176,0.197l4.527,1.654c-0.287,1.556-0.017,2.577,0.134,2.989
		L6.186,21.44c-0.055,0.048-0.087,0.12-0.089,0.195c-0.002,0.075,0.024,0.147,0.075,0.2l1.322,1.392
		c0.101,0.105,0.265,0.113,0.378,0.022l1.78-1.462c0.711,0.489,1.575,0.713,2.553,0.672l1.343,4.616
		c0.027,0.089,0.094,0.162,0.186,0.187c0.027,0.01,0.053,0.012,0.08,0.012c0.065,0,0.128-0.022,0.178-0.063l3.911-3.253
		c0.043-0.036,0.075-0.084,0.089-0.137L19.263,19.249L19.263,19.249z M18.841,14.274c-1.548,0-2.803-1.255-2.803-2.803
		c0-1.548,1.255-2.803,2.803-2.803c1.549,0,2.806,1.255,2.806,2.803C21.647,13.019,20.39,14.274,18.841,14.274L18.841,14.274z
		 M18.841,14.274"/>
	<path d="M3.352,29.088c-0.072,0.07-0.094,0.178-0.057,0.27c0.038,0.094,0.13,0.154,0.231,0.154h2.548
		c0.065,0,0.125-0.024,0.171-0.067l3.024-2.89c0.067-0.067,0.094-0.166,0.063-0.258l-0.638-1.895
		c-0.027-0.08-0.092-0.14-0.174-0.162c-0.084-0.019-0.171,0.005-0.231,0.063L3.352,29.088z M8.289,24.304"/>
	<path d="M0.067,27.88C0.024,27.926,0,28.024,0,28.087l0,1.18c0,0.137,0.108,0.248,0.245,0.248H1.3c0.065,0,0.13-0.029,0.176-0.075
		l4.886-4.995c0.089-0.091,0.094-0.236,0.01-0.332L5.276,22.77c-0.046-0.053-0.111-0.161-0.181-0.161H5.091
		c-0.068,0-0.133,0.104-0.178,0.152L0.067,27.88z M4.913,22.76"/>
	<path d="M0.075,23.367C0.026,23.413,0,23.478,0,23.543l0,2.41c0,0.102,0.058,0.19,0.149,0.229c0.031,0.012,0.063,0.019,0.096,0.019
		c0.063,0,0.126-0.027,0.174-0.072l4.975-4.937c0.053-0.053,0.08-0.125,0.072-0.2c-0.007-0.075-0.048-0.142-0.113-0.183
		l-1.445-0.915c-0.096-0.06-0.222-0.048-0.303,0.031L0.075,23.367L0.075,23.367z M0.075,23.367"/>
</g>
</svg>
