<?xml version="1.0" encoding="iso-8859-1"?>
<!-- Generator: Adobe Illustrator 21.0.2, SVG Export Plug-In . SVG Version: 6.00 Build 0)  -->
<svg version="1.1" id="&#x428;&#x430;&#x440;_1" xmlns="http://www.w3.org/2000/svg" xmlns:xlink="http://www.w3.org/1999/xlink"
	 x="0px" y="0px" viewBox="0 0 30 30" style="enable-background:new 0 0 30 30;" xml:space="preserve">
<g>
	<path style="fill:#12100C;" d="M18.998,8.999c-1.103,0-2,0.897-2,2c0,1.103,0.897,2,2,2c1.103,0,2-0.897,2-2
		C20.998,9.896,20.101,8.999,18.998,8.999"/>
	<path style="fill:#12100C;" d="M25.748,11.399l0.707-0.707L19.383,3.62l-0.707,0.707l-0.706-0.706
		c-0.094-0.094-0.221-0.146-0.353-0.146c-0.133,0-0.26,0.052-0.353,0.146l-8.485,8.484c-0.195,0.195-0.195,0.512,0,0.707
		l0.512,0.512c0.691,0.692,1.818,0.692,2.511,0l1.06-1.06c0.401,0.033,0.791,0.121,1.167,0.246l-7.921,7.921
		c-0.751-0.258-1.418-0.28-2.09-0.067l-1.042-1.042c-0.195-0.196-0.512-0.196-0.707,0l-2.121,2.121
		c-0.195,0.196-0.195,0.512,0,0.707l1.039,1.039c-0.546,1.617-0.139,3.397,1.081,4.617c1.223,1.224,3.011,1.63,4.628,1.078
		l1.044,0.979c0.096,0.09,0.219,0.135,0.342,0.135c0.125,0,0.25-0.047,0.347-0.14l2.117-2.046c0.096-0.092,0.151-0.221,0.152-0.355
		c0.001-0.134-0.052-0.263-0.147-0.358L9.71,26.058c0.212-0.672,0.19-1.337-0.067-2.091l7.907-7.907
		c0.125,0.373,0.216,0.759,0.256,1.158l-1.055,1.056c-0.692,0.692-0.692,1.819,0,2.511l0.512,0.512
		c0.093,0.094,0.22,0.146,0.353,0.146c0.133,0,0.26-0.052,0.353-0.146l8.484-8.485c0.195-0.195,0.195-0.511,0-0.707L25.748,11.399
		L25.748,11.399z M7.217,26.393c-0.471,0.472-1.099,0.732-1.767,0.732c-0.668,0-1.295-0.26-1.767-0.732
		c-0.974-0.975-0.974-2.561,0-3.535c0.974-0.974,2.56-0.974,3.535,0C8.191,23.832,8.191,25.418,7.217,26.393L7.217,26.393
		L7.217,26.393z M15.141,15.641l-4.742,4.742c-0.097,0.097-0.226,0.147-0.353,0.147c-0.127,0-0.256-0.049-0.353-0.147
		c-0.195-0.195-0.195-0.511,0-0.707l4.742-4.742c0.195-0.195,0.511-0.195,0.707,0C15.336,15.129,15.336,15.446,15.141,15.641
		L15.141,15.641L15.141,15.641z M17.616,20.237l-0.158-0.158c-0.302-0.303-0.302-0.794,0-1.097l1.219-1.219
		c0.101-0.101,0.154-0.241,0.145-0.383c-0.051-0.847-0.278-1.659-0.639-2.401c-0.003-0.007-0.003-0.015-0.007-0.022
		c-0.044-0.09-0.094-0.176-0.142-0.263c-0.032-0.059-0.061-0.119-0.095-0.177c-0.392-0.672-0.898-1.269-1.489-1.765
		c-0.013-0.011-0.025-0.02-0.038-0.03c-0.131-0.108-0.264-0.212-0.403-0.31c-0.052-0.036-0.105-0.069-0.157-0.103
		c-0.1-0.066-0.2-0.133-0.304-0.193c-0.082-0.049-0.166-0.092-0.249-0.137c-0.056-0.029-0.109-0.063-0.166-0.09
		c-0.008-0.004-0.016-0.005-0.024-0.008c-0.749-0.367-1.568-0.593-2.42-0.627c-0.007-0.001-0.013-0.001-0.02-0.001
		c-0.132,0-0.26,0.053-0.353,0.146l-1.219,1.219c-0.302,0.302-0.795,0.302-1.097,0l-0.158-0.159l7.778-7.777l0.706,0.706
		l6.366,6.365l0.706,0.706L17.616,20.237L17.616,20.237z"/>
	<path style="fill:#12100C;" d="M29.679,6.853c-0.013-0.018-0.028-0.034-0.043-0.05L23.272,0.44c-0.585-0.585-1.538-0.585-2.123,0
		l-0.706,0.706c-0.196,0.195-0.196,0.511,0,0.707l0.353,0.353l-0.707,0.707l7.072,7.072l0.707-0.707l0.353,0.353
		c0.196,0.195,0.512,0.195,0.707,0l0.706-0.706c0.018-0.018,0.034-0.037,0.049-0.057C30.107,8.296,30.105,7.41,29.679,6.853
		 M28.897,8.25l-0.321,0.321l-0.353-0.353l-6.365-6.366l-0.353-0.353l0.352-0.352c0.196-0.195,0.513-0.195,0.709,0l6.336,6.336
		C29.038,7.686,29.036,8.035,28.897,8.25"/>
	<path style="fill:#12100C;" d="M5.449,23.126c-0.401,0-0.777,0.156-1.06,0.439c-0.585,0.585-0.585,1.536,0,2.121
		c0.566,0.566,1.554,0.566,2.121,0c0.585-0.585,0.585-1.536,0-2.121C6.227,23.282,5.85,23.126,5.449,23.126"/>
</g>
</svg>
