<?xml version="1.0" encoding="iso-8859-1"?>
<!-- Generator: Adobe Illustrator 21.0.2, SVG Export Plug-In . SVG Version: 6.00 Build 0)  -->
<svg version="1.1" id="&#x428;&#x430;&#x440;_1" xmlns="http://www.w3.org/2000/svg" xmlns:xlink="http://www.w3.org/1999/xlink"
	 x="0px" y="0px" viewBox="0 0 30 30" style="enable-background:new 0 0 30 30;" xml:space="preserve">
<g>
	<g>
		<path d="M29.906,13.335c-0.048-0.422-0.539-0.739-0.964-0.739c-1.375,0-2.595-0.807-3.106-2.055
			c-0.522-1.279-0.186-2.77,0.839-3.709c0.322-0.295,0.362-0.789,0.091-1.132c-0.704-0.893-1.503-1.7-2.376-2.4
			c-0.342-0.274-0.843-0.236-1.14,0.092c-0.894,0.99-2.5,1.358-3.741,0.841c-1.291-0.543-2.106-1.852-2.026-3.257
			c0.027-0.441-0.296-0.825-0.736-0.876c-1.121-0.13-2.251-0.134-3.375-0.009c-0.434,0.048-0.756,0.423-0.742,0.858
			c0.049,1.391-0.775,2.677-2.054,3.201c-1.226,0.5-2.821,0.136-3.714-0.846C6.566,2.981,6.073,2.941,5.729,3.209
			C4.83,3.914,4.013,4.722,3.302,5.608c-0.277,0.345-0.236,0.844,0.089,1.14c1.045,0.946,1.381,2.449,0.839,3.743
			c-0.518,1.234-1.798,2.028-3.264,2.028c-0.476-0.015-0.814,0.304-0.867,0.737c-0.132,1.126-0.133,2.275-0.006,3.411
			c0.048,0.423,0.554,0.738,0.984,0.738c1.306-0.034,2.56,0.775,3.086,2.055c0.524,1.278,0.187,2.769-0.839,3.71
			c-0.321,0.295-0.362,0.787-0.091,1.13c0.697,0.888,1.497,1.696,2.373,2.401c0.343,0.277,0.844,0.238,1.142-0.091
			c0.898-0.992,2.504-1.36,3.74-0.841c1.295,0.542,2.109,1.851,2.03,3.256c-0.026,0.441,0.297,0.826,0.735,0.876
			c0.574,0.067,1.15,0.1,1.728,0.1c0.549,0,1.098-0.03,1.647-0.09c0.435-0.048,0.756-0.423,0.742-0.859
			c-0.05-1.391,0.776-2.676,2.053-3.199c1.234-0.504,2.822-0.135,3.715,0.845c0.296,0.322,0.786,0.362,1.132,0.095
			c0.897-0.704,1.713-1.511,2.426-2.4c0.277-0.344,0.238-0.844-0.089-1.14c-1.044-0.945-1.382-2.449-0.841-3.741
			c0.51-1.216,1.743-2.034,3.069-2.034l0.186,0.005c0.43,0.035,0.826-0.296,0.878-0.735C30.032,15.618,30.033,14.471,29.906,13.335
			L29.906,13.335z M15,23.648c-4.776,0-8.648-3.871-8.648-8.647c0-4.777,3.872-8.648,8.648-8.648s8.648,3.871,8.648,8.648
			c0,1.621-0.447,3.137-1.223,4.434l-3.787-3.787c0.274-0.646,0.419-1.347,0.419-2.07c0-1.416-0.552-2.747-1.553-3.748
			c-1.001-1.001-2.333-1.553-3.749-1.553c-0.473,0-0.943,0.063-1.397,0.187c-0.199,0.054-0.362,0.219-0.415,0.418
			c-0.054,0.204,0.007,0.414,0.167,0.573c0,0,1.869,1.884,2.495,2.509c0.066,0.065,0.065,0.222,0.056,0.278l-0.006,0.041
			c-0.063,0.687-0.185,1.513-0.285,1.83c-0.013,0.013-0.026,0.025-0.04,0.039c-0.014,0.014-0.028,0.028-0.042,0.042
			c-0.321,0.103-1.159,0.226-1.858,0.288l0.001-0.004l-0.032,0.008c-0.006,0.001-0.016,0.001-0.03,0.001
			c-0.075,0-0.186-0.021-0.288-0.122c-0.651-0.651-2.447-2.435-2.447-2.435c-0.161-0.161-0.326-0.194-0.436-0.194
			c-0.257,0-0.487,0.186-0.559,0.452c-0.495,1.83,0.03,3.798,1.368,5.136c1.002,1.002,2.333,1.553,3.749,1.553
			c0.723,0,1.424-0.144,2.07-0.419l3.828,3.828C18.309,23.147,16.714,23.648,15,23.648L15,23.648z M15,23.648"/>
	</g>
</g>
</svg>
