<?xml version="1.0" encoding="iso-8859-1"?>
<!-- Generator: Adobe Illustrator 21.0.2, SVG Export Plug-In . SVG Version: 6.00 Build 0)  -->
<svg version="1.1" id="&#x428;&#x430;&#x440;_1" xmlns="http://www.w3.org/2000/svg" xmlns:xlink="http://www.w3.org/1999/xlink"
	 x="0px" y="0px" viewBox="0 0 30 30" style="enable-background:new 0 0 30 30;" xml:space="preserve">
<g>
	<path style="fill:#FFFFFF;" d="M10.536,23.521l-4.476,2.44c-0.262,0.144-0.5,0.321-0.718,0.512C7.951,28.673,11.321,30,15,30
		c3.654,0,7.002-1.307,9.603-3.477c-0.238-0.202-0.501-0.384-0.788-0.528l-4.793-2.396c-0.619-0.31-1.012-0.943-1.012-1.637v-1.879
		c0.136-0.152,0.29-0.351,0.454-0.583c0.655-0.923,1.147-1.938,1.489-3.002c0.616-0.19,1.07-0.757,1.07-1.431v-2.007
		c0-0.442-0.196-0.838-0.503-1.114V9.043c0,0,0.597-4.514-5.52-4.514c-6.114,0-5.517,4.514-5.517,4.514v2.903
		c-0.306,0.276-0.503,0.671-0.503,1.114v2.007c0,0.528,0.28,0.992,0.694,1.263c0.503,2.184,1.816,3.754,1.816,3.754v1.836
		C11.489,22.584,11.122,23.201,10.536,23.521L10.536,23.521z M10.536,23.521"/>
	<path style="fill:#CCCCCC;" d="M15.256,0.002C6.973-0.138,0.143,6.462,0.002,14.743c-0.08,4.699,2.012,8.919,5.346,11.725
		c0.218-0.188,0.45-0.362,0.71-0.506l4.478-2.44c0.586-0.321,0.95-0.934,0.95-1.606v-1.833c0,0-1.313-1.573-1.813-3.757
		c-0.417-0.268-0.694-0.732-0.694-1.26v-2.01c0-0.439,0.197-0.835,0.5-1.111V9.043c0,0-0.594-4.517,5.52-4.517
		c6.114,0,5.52,4.517,5.52,4.517v2.903c0.304,0.276,0.5,0.671,0.5,1.111v2.01c0,0.674-0.454,1.241-1.067,1.431
		c-0.343,1.064-0.837,2.079-1.489,3.002c-0.166,0.232-0.318,0.428-0.454,0.583v1.879c0,0.694,0.39,1.327,1.009,1.637l4.795,2.396
		c0.287,0.144,0.548,0.323,0.785,0.526c3.234-2.695,5.32-6.725,5.398-11.263C30.141,6.973,23.541,0.143,15.256,0.002L15.256,0.002z
		 M15.256,0.002"/>
</g>
</svg>
