<?xml version="1.0" encoding="iso-8859-1"?>
<!-- Generator: Adobe Illustrator 21.0.2, SVG Export Plug-In . SVG Version: 6.00 Build 0)  -->
<svg version="1.1" id="&#x428;&#x430;&#x440;_1" xmlns="http://www.w3.org/2000/svg" xmlns:xlink="http://www.w3.org/1999/xlink"
	 x="0px" y="0px" viewBox="0 0 30 30" style="enable-background:new 0 0 30 30;" xml:space="preserve">
<g>
	<path d="M14.996,0C6.715,0,0,6.715,0,14.996C0,23.279,6.715,30,14.996,30C23.279,30,30,23.279,30,14.996
		C30,6.715,23.279,0,14.996,0L14.996,0z M18.121,23.249c-0.774,0.303-1.389,0.533-1.847,0.694c-0.459,0.162-0.992,0.243-1.6,0.243
		c-0.936,0-1.666-0.23-2.182-0.689c-0.521-0.452-0.774-1.035-0.774-1.736c0-0.273,0.019-0.551,0.056-0.836
		c0.038-0.286,0.1-0.601,0.186-0.962l0.968-3.415c0.086-0.329,0.16-0.638,0.216-0.924c0.057-0.298,0.087-0.563,0.087-0.806
		c0-0.433-0.092-0.738-0.273-0.911c-0.179-0.173-0.521-0.254-1.028-0.254c-0.248,0-0.508,0.037-0.77,0.111
		c-0.26,0.081-0.482,0.156-0.668,0.224l0.254-1.047c0.632-0.26,1.239-0.478,1.816-0.663c0.578-0.187,1.122-0.279,1.638-0.279
		c0.928,0,1.643,0.229,2.144,0.676c0.502,0.446,0.757,1.028,0.757,1.747c0,0.149-0.019,0.409-0.051,0.781
		c-0.036,0.379-0.098,0.719-0.192,1.03l-0.96,3.403c-0.081,0.273-0.149,0.589-0.217,0.936c-0.062,0.348-0.092,0.614-0.092,0.794
		c0,0.452,0.105,0.763,0.303,0.924c0.205,0.168,0.552,0.248,1.054,0.248c0.235,0,0.497-0.043,0.794-0.124
		c0.292-0.079,0.508-0.154,0.644-0.216L18.121,23.249z M17.954,9.437c-0.452,0.414-0.992,0.625-1.625,0.625
		c-0.625,0-1.171-0.211-1.624-0.625c-0.446-0.416-0.676-0.924-0.676-1.519c0-0.59,0.23-1.098,0.676-1.52
		c0.452-0.414,0.998-0.625,1.624-0.625c0.633,0,1.173,0.211,1.625,0.625c0.446,0.422,0.67,0.93,0.67,1.52
		C18.624,8.513,18.4,9.021,17.954,9.437L17.954,9.437z M17.954,9.437"/>
</g>
</svg>
