<?xml version="1.0" encoding="iso-8859-1"?>
<!-- Generator: Adobe Illustrator 21.0.2, SVG Export Plug-In . SVG Version: 6.00 Build 0)  -->
<svg version="1.1" id="&#x428;&#x430;&#x440;_1" xmlns="http://www.w3.org/2000/svg" xmlns:xlink="http://www.w3.org/1999/xlink"
	 x="0px" y="0px" viewBox="0 0 30 30" style="enable-background:new 0 0 30 30;" xml:space="preserve">
<g>
	<path d="M16.547,0c-1.385,0-0.919,2.96-0.919,2.96s-2.96,8.163-5.791,10.338C9.23,13.936,8.85,14.64,8.612,15.216
		c-0.055,0.141-0.104,0.276-0.147,0.398c-0.19,0.386-0.594,0.981-1.458,1.501l2.831,12.311c0,0,4.382,0.57,8.776,0.478
		c1.759,0.141,3.622,0.153,5.105-0.165c5.037-1.072,3.775-4.584,3.775-4.584c2.715-2.04,1.17-4.59,1.17-4.59
		c2.414-2.519,0.043-4.633,0.043-4.633s1.305-2.034-0.38-3.573c-2.102-1.924-7.807-0.643-7.807-0.643
		c-0.398,0.067-0.821,0.153-1.274,0.263c0,0-1.973,0.919,0-5.068C21.224,0.925,17.933,0,16.547,0L16.547,0z M16.547,0"/>
	<path d="M7.803,28.539L5.658,18.348c-0.122-0.582-0.711-1.06-1.305-1.06H0.259L0.253,29.593h6.686
		C7.539,29.599,7.925,29.121,7.803,28.539L7.803,28.539z M7.803,28.539"/>
</g>
</svg>
