<?xml version="1.0" encoding="iso-8859-1"?>
<!-- Generator: Adobe Illustrator 21.0.2, SVG Export Plug-In . SVG Version: 6.00 Build 0)  -->
<svg version="1.1" id="&#x428;&#x430;&#x440;_1" xmlns="http://www.w3.org/2000/svg" xmlns:xlink="http://www.w3.org/1999/xlink"
	 x="0px" y="0px" viewBox="0 0 30 30" style="enable-background:new 0 0 30 30;" xml:space="preserve">
<g>
	<path d="M22.445,9.224c-0.897-0.359-1.156-0.577-1.156-0.969c0-0.314,0.238-0.681,0.908-0.681c0.593,0,1.048,0.234,1.052,0.236
		c0.048,0.026,0.102,0.039,0.154,0.039c0.13,0,0.245-0.078,0.292-0.2l0.163-0.417c0.057-0.152-0.029-0.284-0.139-0.331
		c-0.365-0.159-1.079-0.282-1.086-0.284c-0.012-0.002-0.052-0.01-0.052-0.057l-0.002-0.604c0-0.182-0.152-0.33-0.339-0.33H21.95
		c-0.186,0-0.338,0.148-0.338,0.33l0.001,0.635c0,0.049-0.053,0.07-0.072,0.074c-0.901,0.215-1.464,0.875-1.464,1.707
		c0,1.038,0.858,1.507,1.784,1.859c0.741,0.291,1.043,0.585,1.043,1.018c0,0.47-0.428,0.799-1.04,0.799
		c-0.524,0-1.232-0.332-1.239-0.335c-0.045-0.021-0.093-0.032-0.143-0.032c-0.135,0-0.252,0.081-0.299,0.208l-0.156,0.422
		c-0.055,0.157,0.03,0.285,0.139,0.341c0.435,0.227,1.277,0.36,1.314,0.365c0.01,0.001,0.062,0.019,0.062,0.066v0.633
		c0,0.182,0.152,0.33,0.339,0.33h0.302c0.187,0,0.339-0.148,0.339-0.33V13.05c0-0.062,0.046-0.068,0.056-0.07
		c0.96-0.216,1.551-0.918,1.551-1.799C24.126,10.275,23.623,9.69,22.445,9.224L22.445,9.224z M22.445,9.224"/>
	<g>
		<path d="M22.067,1.903c-4.381,0-7.933,3.552-7.933,7.933c0,4.381,3.552,7.933,7.933,7.933c4.381,0,7.933-3.552,7.933-7.933
			C30,5.455,26.448,1.903,22.067,1.903L22.067,1.903z M22.067,15.931c-3.366,0-6.095-2.729-6.095-6.094
			c0-3.366,2.729-6.095,6.095-6.095c3.366,0,6.094,2.729,6.094,6.095C28.161,13.202,25.433,15.931,22.067,15.931L22.067,15.931z
			 M22.067,15.931"/>
		<path d="M28.388,21.613c-1.687,0.931-4.007,1.792-6.321,2.155c-2.059,0.323-5.932-0.456-5.932-1.375
			c0-0.348,3.397,0.859,5.452,0.311c1.575-0.42,1.352-1.894,0.495-2.089c-0.852-0.193-5.843-2.022-7.975-2.085
			c-1.005-0.03-3.484,0.349-4.684,0.545c-0.411,0.067-0.669,0.059-0.694,0.452c-0.12,1.828-0.355,5.567-0.483,7.52
			c-0.003,0.041,0.054,0.596,0.512,0.206c0.501-0.427,1.204-0.901,1.854-0.754c1.02,0.232,9.845,1.848,11.062,1.565
			c1.741-0.405,6.67-3.326,7.615-4.234C30.754,22.422,29.615,20.936,28.388,21.613L28.388,21.613z M28.388,21.613"/>
		<path d="M6.293,19.003L1.67,18.775c-0.357-0.017-0.722,0.251-0.81,0.597l-0.84,7.632c-0.089,0.346,0.131,0.64,0.488,0.654l5.123,0
			c0.357,0.014,0.671-0.267,0.699-0.623l0.562-7.353C6.92,19.326,6.65,19.021,6.293,19.003L6.293,19.003z M3.572,26.647
			c-0.706,0-1.278-0.572-1.278-1.278c0-0.706,0.572-1.278,1.278-1.278c0.706,0,1.278,0.572,1.278,1.278
			C4.85,26.075,4.278,26.647,3.572,26.647L3.572,26.647z M3.572,26.647"/>
	</g>
</g>
</svg>
