<?xml version="1.0" encoding="iso-8859-1"?>
<!-- Generator: Adobe Illustrator 21.0.2, SVG Export Plug-In . SVG Version: 6.00 Build 0)  -->
<svg version="1.1" id="&#x428;&#x430;&#x440;_1" xmlns="http://www.w3.org/2000/svg" xmlns:xlink="http://www.w3.org/1999/xlink"
	 x="0px" y="0px" viewBox="0 0 30 30" style="enable-background:new 0 0 30 30;" xml:space="preserve">
<g>
	<path style="fill-rule:evenodd;clip-rule:evenodd;" d="M24.981,3.928v22.144c0,1.37,1.123,2.48,2.51,2.48
		c1.386,0,2.51-1.111,2.51-2.48V3.928c0-1.37-1.124-2.48-2.51-2.48C26.104,1.448,24.981,2.558,24.981,3.928L24.981,3.928z
		 M22.338,16.844c0.453-0.452,0.69-1.034,0.73-1.626c0.006-0.07,0.021-0.138,0.021-0.209c0-0.071-0.015-0.138-0.021-0.207
		c-0.04-0.593-0.276-1.175-0.73-1.628l-7.961-7.938c-0.996-0.994-2.61-0.994-3.606,0c-0.995,0.994-0.995,2.605,0,3.599l3.675,3.664
		l-11.894,0c-1.192,0-2.356,0.957-2.525,2.137c-0.223,1.552,0.974,2.883,2.483,2.883h11.937l-3.675,3.664
		c-0.995,0.994-0.995,2.606,0,3.599c0.996,0.994,2.61,0.994,3.606,0L22.338,16.844z M22.277,16.824"/>
</g>
</svg>
