<?xml version="1.0" encoding="iso-8859-1"?>
<!-- Generator: Adobe Illustrator 21.0.2, SVG Export Plug-In . SVG Version: 6.00 Build 0)  -->
<svg version="1.1" id="&#x428;&#x430;&#x440;_1" xmlns="http://www.w3.org/2000/svg" xmlns:xlink="http://www.w3.org/1999/xlink"
	 x="0px" y="0px" viewBox="0 0 30 30" style="enable-background:new 0 0 30 30;" xml:space="preserve">
<g>
	<path style="fill:#12100C;" d="M11.663,16.927h6.675l0.5,2.294h-7.674L11.663,16.927L11.663,16.927z M11.111,21.818
		c0.679,0,1.23,0.551,1.23,1.23c0,0.679-0.551,1.23-1.23,1.23c-0.679,0-1.23-0.551-1.23-1.23
		C9.881,22.369,10.432,21.818,11.111,21.818L11.111,21.818z M20.119,23.048c0,0.679-0.551,1.23-1.23,1.23
		c-0.679,0-1.23-0.551-1.23-1.23c0-0.679,0.551-1.23,1.23-1.23C19.568,21.818,20.119,22.369,20.119,23.048L20.119,23.048z
		 M22.221,17.878l-1.586,0.478l-0.567-2.606c-0.097-0.446-0.492-0.764-0.949-0.764H10.88c-0.457,0-0.851,0.318-0.949,0.764
		l-0.567,2.606l-1.586-0.478c-0.513-0.155-1.055,0.136-1.21,0.649c-0.155,0.513,0.136,1.055,0.649,1.21l0.919,0.277
		c-0.389,0.428-0.626,0.996-0.626,1.619v3.725c0,0.494,0.369,0.9,0.845,0.962v0.028c0,1.027,0.835,1.862,1.862,1.862h0.922
		c1.027,0,1.862-0.835,1.862-1.862v-0.02h3.992v0.02c0,1.027,0.835,1.862,1.862,1.862h0.922c1.027,0,1.862-0.835,1.862-1.862v-0.028
		c0.477-0.062,0.845-0.468,0.845-0.962v-3.725c0-0.622-0.237-1.19-0.626-1.619l0.919-0.277c0.513-0.155,0.804-0.696,0.649-1.21
		C23.276,18.014,22.735,17.723,22.221,17.878L22.221,17.878z"/>
	<path style="fill:#12100C;" d="M28.242,8.799h-0.261V2.696c0-0.536-0.435-0.971-0.971-0.971H2.99c-0.536,0-0.971,0.435-0.971,0.971
		v6.103H1.758C0.789,8.799,0,9.588,0,10.557v15.959c0,0.969,0.789,1.758,1.758,1.758h2.463c0.969,0,1.758-0.789,1.758-1.758V10.557
		c0-0.969-0.789-1.758-1.758-1.758H3.96V3.667H26.04v5.132h-0.261c-0.969,0-1.758,0.789-1.758,1.758v15.959
		c0,0.969,0.789,1.758,1.758,1.758h2.463c0.969,0,1.758-0.789,1.758-1.758V10.557C30,9.588,29.211,8.799,28.242,8.799L28.242,8.799z
		"/>
	<path style="fill:#12100C;" d="M15,6.796c0.268,0,0.485-0.217,0.485-0.485V5.34c0-0.268-0.217-0.485-0.485-0.485
		s-0.485,0.217-0.485,0.485v0.971C14.515,6.579,14.732,6.796,15,6.796L15,6.796z"/>
	<path style="fill:#12100C;" d="M14.515,8.747c0,0.268,0.217,0.485,0.485,0.485s0.485-0.217,0.485-0.485V7.529
		c0-0.268-0.217-0.485-0.485-0.485s-0.485,0.217-0.485,0.485V8.747L14.515,8.747z"/>
	<path style="fill:#12100C;" d="M14.515,10.935c0,0.268,0.217,0.485,0.485,0.485s0.485-0.217,0.485-0.485V9.965
		c0-0.268-0.217-0.485-0.485-0.485s-0.485,0.217-0.485,0.485V10.935L14.515,10.935z"/>
	<path style="fill:#12100C;" d="M13.368,6.772c0.221,0,0.421-0.152,0.472-0.376l0.218-0.946c0.06-0.261-0.103-0.522-0.364-0.582
		c-0.261-0.06-0.522,0.103-0.582,0.364l-0.218,0.946c-0.06,0.261,0.103,0.522,0.364,0.582C13.295,6.768,13.332,6.772,13.368,6.772
		L13.368,6.772z"/>
	<path style="fill:#12100C;" d="M12.61,7.411l-0.285,1.234c-0.06,0.261,0.103,0.522,0.364,0.582c0.037,0.008,0.073,0.013,0.11,0.013
		c0.221,0,0.421-0.152,0.473-0.376l0.285-1.234c0.06-0.261-0.103-0.522-0.364-0.582C12.931,6.987,12.67,7.15,12.61,7.411
		L12.61,7.411z"/>
	<path style="fill:#12100C;" d="M12.04,9.88l-0.218,0.946c-0.07,0.304,0.161,0.595,0.473,0.595c0.221,0,0.421-0.152,0.472-0.376
		l0.218-0.946c0.06-0.261-0.103-0.522-0.364-0.582C12.361,9.456,12.1,9.619,12.04,9.88L12.04,9.88z"/>
	<path style="fill:#12100C;" d="M16.887,5.231c-0.06-0.261-0.321-0.424-0.582-0.364c-0.261,0.06-0.424,0.321-0.364,0.582
		l0.218,0.946c0.052,0.225,0.252,0.376,0.473,0.376c0.036,0,0.073-0.004,0.11-0.013c0.261-0.06,0.424-0.321,0.364-0.582
		L16.887,5.231L16.887,5.231z"/>
	<path style="fill:#12100C;" d="M17.39,7.411c-0.06-0.261-0.321-0.424-0.582-0.364c-0.261,0.06-0.424,0.321-0.364,0.582l0.285,1.234
		c0.052,0.225,0.252,0.376,0.472,0.376c0.036,0,0.073-0.004,0.11-0.013c0.261-0.06,0.424-0.321,0.364-0.582L17.39,7.411L17.39,7.411
		z"/>
	<path style="fill:#12100C;" d="M17.378,9.517c-0.261,0.06-0.424,0.321-0.364,0.582l0.218,0.946c0.06,0.261,0.32,0.424,0.582,0.364
		c0.261-0.06,0.424-0.321,0.364-0.582L17.96,9.88C17.9,9.619,17.639,9.456,17.378,9.517L17.378,9.517z"/>
</g>
</svg>
