<?xml version="1.0" encoding="iso-8859-1"?>
<!-- Generator: Adobe Illustrator 21.0.2, SVG Export Plug-In . SVG Version: 6.00 Build 0)  -->
<svg version="1.1" id="&#x428;&#x430;&#x440;_1" xmlns="http://www.w3.org/2000/svg" xmlns:xlink="http://www.w3.org/1999/xlink"
	 x="0px" y="0px" viewBox="0 0 30 30" style="enable-background:new 0 0 30 30;" xml:space="preserve">
<path style="fill-rule:evenodd;clip-rule:evenodd;" d="M15,0C6.716,0,0,6.716,0,15c0,8.284,6.716,15,15,15s15-6.716,15-15
	C30,6.716,23.284,0,15,0z M22.217,16.549c0.663,0.647,1.362,1.255,1.956,1.968c0.262,0.316,0.511,0.643,0.701,1.01
	c0.269,0.522,0.025,1.096-0.443,1.128l-2.897-0.002c-0.753,0.063-1.353-0.24-1.857-0.754c-0.404-0.411-0.778-0.849-1.166-1.274
	c-0.159-0.174-0.326-0.337-0.525-0.466c-0.398-0.259-0.744-0.18-0.971,0.236c-0.232,0.422-0.284,0.89-0.307,1.361
	c-0.031,0.687-0.239,0.867-0.929,0.899c-1.475,0.07-2.874-0.154-4.174-0.897c-1.146-0.656-2.035-1.582-2.808-2.629
	c-1.506-2.041-2.659-4.283-3.696-6.588C4.868,10.019,5.039,9.74,5.612,9.73c0.951-0.018,1.903-0.017,2.855-0.001
	c0.387,0.006,0.643,0.227,0.792,0.593c0.515,1.266,1.145,2.47,1.936,3.586c0.21,0.297,0.425,0.594,0.731,0.804
	c0.338,0.232,0.595,0.155,0.755-0.222c0.101-0.239,0.145-0.496,0.168-0.752c0.075-0.88,0.085-1.759-0.047-2.636
	c-0.081-0.548-0.39-0.902-0.936-1.006c-0.279-0.053-0.237-0.156-0.102-0.316c0.234-0.274,0.455-0.445,0.894-0.445h3.296
	c0.519,0.102,0.634,0.336,0.705,0.858l0.003,3.679c-0.006,0.202,0.101,0.8,0.464,0.934c0.291,0.095,0.482-0.138,0.656-0.322
	c0.787-0.836,1.349-1.823,1.851-2.845c0.223-0.45,0.414-0.917,0.6-1.383c0.138-0.346,0.353-0.516,0.743-0.509l3.165,0.003
	c0.094,0,0.189,0.001,0.279,0.017c0.533,0.091,0.68,0.32,0.515,0.841c-0.26,0.817-0.764,1.498-1.258,2.182
	c-0.528,0.73-1.092,1.435-1.615,2.17C21.581,15.629,21.62,15.967,22.217,16.549z"/>
</svg>
