<?xml version="1.0" encoding="utf-8"?>
<!-- Generator: Adobe Illustrator 21.0.1, SVG Export Plug-In . SVG Version: 6.00 Build 0)  -->
<svg version="1.1" id="Шар_1" xmlns="http://www.w3.org/2000/svg" xmlns:xlink="http://www.w3.org/1999/xlink" x="0px" y="0px"
	 viewBox="0 0 30 24.8" style="enable-background:new 0 0 30 24.8;" xml:space="preserve">
<g>
	<path d="M23.3,16.4c-1.5,0-2.8,1.2-2.8,2.8s1.2,2.8,2.8,2.8c1.5,0,2.8-1.2,2.8-2.8C26.1,17.6,24.9,16.4,23.3,16.4L23.3,16.4z
		 M23.3,20.4c-0.7,0-1.2-0.5-1.2-1.2s0.5-1.2,1.2-1.2s1.2,0.5,1.2,1.2S24,20.4,23.3,20.4L23.3,20.4z"/>
	<path d="M7,16.4c-1.5,0-2.8,1.2-2.8,2.8s1.2,2.8,2.8,2.8c1.5,0,2.8-1.2,2.8-2.8C9.8,17.6,8.5,16.4,7,16.4L7,16.4z M7,20.4
		c-0.7,0-1.2-0.5-1.2-1.2s0.5-1.2,1.2-1.2s1.2,0.5,1.2,1.2C8.2,19.8,7.7,20.4,7,20.4L7,20.4z"/>
	<path d="M1.7,5.1C0.7,5.1,0,5.8,0,6.7v10.7c0,0.9,0.7,1.7,1.7,1.7h2c0-1.8,1.5-3.3,3.3-3.3c1.8,0,3.3,1.5,3.3,3.3h9.8
		c0-1.8,1.5-3.3,3.3-3.3s3.3,1.5,3.3,3.3h1.7c0.9,0,1.7-0.7,1.7-1.7v-3.8c0-0.9-0.1-2.4-0.3-3.3l-1-3.6c-0.2-0.9-1.1-1.6-2-1.6
		L1.7,5.1L1.7,5.1z M23.1,12.1v-6h3.3c0.7,0,1.4,0.6,1.5,1.2l0.9,3.6c0.1,0.6-0.2,1.1-0.7,1.2l-0.8-1.8c-0.1-0.3-0.4-0.4-0.7-0.3
		c-0.3,0.1-0.4,0.4-0.3,0.7l0.6,1.5L23.1,12.1L23.1,12.1z M15.7,6.1h6.4v6h-6.4V6.1z M8.3,6.1h6.4v6H8.3V6.1z M1,7.3
		c0-0.7,0.6-1.2,1.2-1.2h5v6h-5c-0.7,0-1.2-0.6-1.2-1.2V7.3z"/>
</g>
</svg>
