<?xml version="1.0" encoding="iso-8859-1"?>
<!-- Generator: Adobe Illustrator 21.0.2, SVG Export Plug-In . SVG Version: 6.00 Build 0)  -->
<svg version="1.1" id="&#x428;&#x430;&#x440;_1" xmlns="http://www.w3.org/2000/svg" xmlns:xlink="http://www.w3.org/1999/xlink"
	 x="0px" y="0px" viewBox="0 0 30 30" style="enable-background:new 0 0 30 30;" xml:space="preserve">
<g>
	<path d="M15.768,0.019c-0.11-0.014-0.222-0.016-0.332-0.008C15.291,0.008,15.145,0,15,0c-0.159,0-0.318,0.008-0.477,0.013
		c-0.132-0.011-0.264-0.006-0.392,0.014C6.263,0.479,0,7.02,0,15c0,7.964,6.239,14.495,14.087,14.97
		C14.186,29.986,14.282,30,14.38,30c0.047,0,0.093-0.008,0.14-0.011C14.679,29.994,14.839,30,15,30c0.145,0,0.291-0.006,0.436-0.011
		C15.477,29.992,15.518,30,15.562,30c0.06,0,0.121-0.011,0.181-0.019C23.671,29.591,30,23.021,30,15
		C30,6.987,23.685,0.419,15.768,0.019L15.768,0.019z M23.353,6.924c-0.584,0.154-1.366,0.312-2.395,0.442
		c-0.682-1.256-1.456-2.391-2.199-3.362C20.518,4.607,22.086,5.616,23.353,6.924L23.353,6.924z M19.599,16.483
		c-0.14,0.801-0.37,1.582-0.661,2.339c-1.158-0.065-2.471-0.095-3.957-0.079c-1.486,0.016-2.795,0.074-3.946,0.157
		c-0.307-0.779-0.546-1.588-0.689-2.416H19.599z M10.346,12.973c0.145-0.845,0.395-1.669,0.71-2.465
		c1.149,0.082,2.449,0.14,3.924,0.156c0.288,0.003,0.57,0.006,0.845,0.006c1.138,0,2.164-0.03,3.093-0.082
		c0.299,0.771,0.538,1.571,0.677,2.385H10.346z M14.973,4.711c0.677,0.773,1.473,1.766,2.218,2.912
		c-0.666,0.016-1.387,0.022-2.169,0.011c-0.809-0.008-1.549-0.03-2.237-0.063C13.522,6.449,14.301,5.473,14.973,4.711L14.973,4.711z
		 M11.161,4.034C10.445,4.972,9.705,6.06,9.041,7.261C8.057,7.132,7.3,6.984,6.724,6.842C7.955,5.591,9.472,4.628,11.161,4.034
		L11.161,4.034z M4.642,9.395c0.722,0.258,1.687,0.51,2.973,0.724c-0.31,0.919-0.543,1.873-0.675,2.854H3.507
		C3.691,11.704,4.08,10.5,4.642,9.395L4.642,9.395z M3.507,16.483h3.434c0.128,0.965,0.357,1.906,0.658,2.808
		c-1.292,0.214-2.257,0.469-2.978,0.727C4.07,18.927,3.688,17.739,3.507,16.483L3.507,16.483z M6.685,23.114
		c0.574-0.143,1.336-0.293,2.329-0.425c0.669,1.223,1.42,2.328,2.147,3.277C9.453,25.365,7.925,24.384,6.685,23.114L6.685,23.114z
		 M14.97,25.292c-0.682-0.774-1.478-1.766-2.227-2.915c0.699-0.03,1.457-0.055,2.279-0.063c0.795-0.011,1.525-0.006,2.202,0.011
		C16.467,23.492,15.658,24.505,14.97,25.292L14.97,25.292z M18.76,25.996c0.754-0.984,1.535-2.136,2.227-3.412
		c1.039,0.132,1.82,0.291,2.404,0.447C22.119,24.362,20.537,25.388,18.76,25.996L18.76,25.996z M25.418,19.941
		c-0.738-0.279-1.722-0.551-3.036-0.762c0.282-0.869,0.496-1.768,0.62-2.696h3.493C26.317,17.709,25.95,18.869,25.418,19.941
		L25.418,19.941z M26.496,12.973h-3.493c-0.124-0.94-0.346-1.859-0.637-2.742c1.309-0.211,2.293-0.479,3.031-0.757
		C25.939,10.557,26.314,11.734,26.496,12.973L26.496,12.973z M26.496,13.313"/>
</g>
</svg>
