<?xml version="1.0" encoding="iso-8859-1"?>
<!-- Generator: Adobe Illustrator 21.0.2, SVG Export Plug-In . SVG Version: 6.00 Build 0)  -->
<svg version="1.1" id="&#x428;&#x430;&#x440;_1" xmlns="http://www.w3.org/2000/svg" xmlns:xlink="http://www.w3.org/1999/xlink"
	 x="0px" y="0px" viewBox="0 0 30 30" style="enable-background:new 0 0 30 30;" xml:space="preserve">
<path d="M8.848,12.15l-2.094,2.104l6.744,6.744l15-15l-2.102-2.102L13.498,16.802L8.848,12.15z M26.996,15
	c0,6.6-5.396,11.996-11.996,11.996C8.4,26.996,3.004,21.6,3.004,15C3.004,8.4,8.4,3.004,15,3.004c1.202,0,2.248,0.146,3.304,0.446
	l2.394-2.402C18.896,0.446,16.948,0,15,0C6.754,0,0,6.754,0,15c0,8.246,6.754,15,15,15c8.246,0,15-6.754,15-15H26.996z M26.996,15"
	/>
</svg>
