<?xml version="1.0" encoding="iso-8859-1"?>
<!-- Generator: Adobe Illustrator 21.0.2, SVG Export Plug-In . SVG Version: 6.00 Build 0)  -->
<svg version="1.1" id="&#x428;&#x430;&#x440;_1" xmlns="http://www.w3.org/2000/svg" xmlns:xlink="http://www.w3.org/1999/xlink"
	 x="0px" y="0px" viewBox="0 0 30 30" style="enable-background:new 0 0 30 30;" xml:space="preserve">
<g>
	<path d="M29.265,3.735C28.775,3.245,28.187,3,27.5,3H2.5C1.813,3,1.224,3.245,0.734,3.735C0.245,4.224,0,4.812,0,5.501v18.999
		c0,0.688,0.245,1.276,0.734,1.766C1.224,26.755,1.813,27,2.5,27H27.5c0.687,0,1.276-0.245,1.765-0.734
		c0.49-0.49,0.735-1.078,0.735-1.766V5.501C30,4.812,29.755,4.224,29.265,3.735L29.265,3.735z M28,24.499
		c0,0.136-0.05,0.253-0.149,0.352C27.753,24.95,27.634,25,27.5,25H2.5c-0.136,0-0.253-0.05-0.352-0.148
		C2.05,24.752,2,24.635,2,24.499v-19c0-0.135,0.049-0.252,0.148-0.351C2.247,5.049,2.364,5,2.5,5H27.5
		c0.136,0,0.253,0.049,0.351,0.148C27.95,5.248,28,5.365,28,5.5V24.499z M28,24.499"/>
	<path d="M7,13c0.834,0,1.542-0.292,2.126-0.875C9.709,11.541,10,10.833,10,10c0-0.834-0.292-1.541-0.875-2.125
		C8.542,7.292,7.833,7.001,7,7.001c-0.832,0-1.541,0.291-2.125,0.875C4.291,8.459,4,9.167,4,10c0,0.833,0.291,1.542,0.875,2.125
		C5.458,12.708,6.167,13,7,13L7,13z M7,13"/>
	<path d="M11.5,17.5L9,15L4,20v3H26V16l-6.5-6.5L11.5,17.5z M11.5,17.5"/>
</g>
</svg>
