<?xml version="1.0" encoding="iso-8859-1"?>
<!-- Generator: Adobe Illustrator 21.0.2, SVG Export Plug-In . SVG Version: 6.00 Build 0)  -->
<svg version="1.1" id="&#x428;&#x430;&#x440;_1" xmlns="http://www.w3.org/2000/svg" xmlns:xlink="http://www.w3.org/1999/xlink"
	 x="0px" y="0px" viewBox="0 0 30 30" style="enable-background:new 0 0 30 30;" xml:space="preserve">
<g>
	<path d="M19.021,6.996h-8.078c-2.18,0-3.946,1.767-3.946,3.946v8.078c0,2.18,1.767,3.946,3.946,3.946h8.08
		c2.179,0,3.945-1.766,3.945-3.945v-8.08C22.967,8.763,21.201,6.996,19.021,6.996z M14.997,20.167c-2.852,0-5.173-2.321-5.173-5.173
		s2.321-5.173,5.173-5.173s5.173,2.321,5.173,5.173S17.849,20.167,14.997,20.167z M20.18,11.099c-0.685,0-1.24-0.555-1.24-1.24
		s0.555-1.24,1.24-1.24c0.685,0,1.24,0.555,1.24,1.24S20.864,11.099,20.18,11.099z"/>
	<path d="M15,0C6.716,0,0,6.716,0,15c0,8.284,6.716,15,15,15c8.284,0,15-6.716,15-15C30,6.716,23.284,0,15,0z M25,19.042
		C25,22.332,22.332,25,19.042,25h-8.083C7.668,25,5,22.332,5,19.042v-8.083C5,7.668,7.668,5,10.958,5h8.083
		C22.327,5,25,7.673,25,10.958V19.042z"/>
	<circle cx="14.997" cy="14.994" r="3.161"/>
</g>
</svg>
