<?xml version="1.0" encoding="iso-8859-1"?>
<!-- Generator: Adobe Illustrator 21.0.2, SVG Export Plug-In . SVG Version: 6.00 Build 0)  -->
<svg version="1.1" id="&#x428;&#x430;&#x440;_1" xmlns="http://www.w3.org/2000/svg" xmlns:xlink="http://www.w3.org/1999/xlink"
	 x="0px" y="0px" viewBox="0 0 30 30" style="enable-background:new 0 0 30 30;" xml:space="preserve">
<g>
	<g>
		<path style="fill-rule:evenodd;clip-rule:evenodd;" d="M29.266,25.721l-6.517-6.517c-0.035-0.034-0.075-0.059-0.111-0.091
			c1.282-1.945,2.031-4.274,2.031-6.778C24.668,5.522,19.146,0,12.334,0S0,5.522,0,12.334c0,6.812,5.522,12.334,12.334,12.334
			c2.504,0,4.833-0.748,6.778-2.031c0.032,0.036,0.056,0.077,0.091,0.111l6.517,6.517c0.979,0.979,2.566,0.979,3.545,0
			C30.245,28.287,30.245,26.7,29.266,25.721L29.266,25.721z M12.334,20.392c-4.451,0-8.058-3.608-8.058-8.058
			c0-4.451,3.608-8.058,8.058-8.058s8.058,3.608,8.058,8.058C20.392,16.784,16.784,20.392,12.334,20.392L12.334,20.392z
			 M12.334,20.392"/>
	</g>
</g>
</svg>
