<?xml version="1.0" encoding="iso-8859-1"?>
<!-- Generator: Adobe Illustrator 21.0.2, SVG Export Plug-In . SVG Version: 6.00 Build 0)  -->
<svg version="1.1" id="&#x428;&#x430;&#x440;_1" xmlns="http://www.w3.org/2000/svg" xmlns:xlink="http://www.w3.org/1999/xlink"
	 x="0px" y="0px" viewBox="0 0 30 30" style="enable-background:new 0 0 30 30;" xml:space="preserve">
<path d="M9.775,22.369l-5.271,2.874c-0.309,0.17-0.589,0.378-0.846,0.603C6.73,28.437,10.699,30,15.032,30
	c4.304,0,8.247-1.539,11.31-4.095c-0.28-0.238-0.59-0.453-0.928-0.622l-5.645-2.822c-0.729-0.365-1.192-1.11-1.192-1.928V18.32
	c0.16-0.179,0.342-0.413,0.534-0.687c0.772-1.088,1.351-2.283,1.754-3.536c0.726-0.224,1.26-0.892,1.26-1.686v-2.364
	c0-0.521-0.231-0.987-0.593-1.312V5.316c0,0,0.703-5.316-6.502-5.316C7.831,0,8.534,5.316,8.534,5.316v3.419
	C8.173,9.06,7.941,9.526,7.941,10.047v2.364c0,0.622,0.329,1.168,0.818,1.488c0.593,2.572,2.139,4.421,2.139,4.421v2.162
	C10.897,21.266,10.465,21.992,9.775,22.369L9.775,22.369z M9.775,22.369"/>
</svg>
