<?xml version="1.0" encoding="iso-8859-1"?>
<!-- Generator: Adobe Illustrator 21.0.2, SVG Export Plug-In . SVG Version: 6.00 Build 0)  -->
<svg version="1.1" id="&#x428;&#x430;&#x440;_1" xmlns="http://www.w3.org/2000/svg" xmlns:xlink="http://www.w3.org/1999/xlink"
	 x="0px" y="0px" viewBox="0 0 30 30" style="enable-background:new 0 0 30 30;" xml:space="preserve">
<g>
	<g>
		<path style="fill-rule:evenodd;clip-rule:evenodd;" d="M29.893,11.081c-0.225-0.602-0.778-1.02-1.418-1.075L20,9l-3.47-7.992
			C16.268,0.397,15.667,0.001,15.002,0H15c-0.664,0-1.265,0.394-1.529,1.003L10,9l-8.475,1.006
			c-0.642,0.056-1.195,0.475-1.419,1.078c-0.225,0.603-0.084,1.282,0.364,1.744L7,19l-1.974,9.034
			c-0.116,0.638,0.148,1.286,0.679,1.661C5.992,29.898,6.329,30,6.667,30c0.286,0,0.573-0.073,0.831-0.222L15,25l7.502,4.778
			C22.76,29.927,23.047,30,23.333,30c0.337,0,0.672-0.102,0.959-0.303c0.531-0.373,0.796-1.019,0.682-1.657L23,19l6.533-6.176
			C29.979,12.362,30.12,11.683,29.893,11.081L29.893,11.081z M29.893,11.099"/>
	</g>
</g>
</svg>
