<?xml version="1.0" encoding="iso-8859-1"?>
<!-- Generator: Adobe Illustrator 21.0.2, SVG Export Plug-In . SVG Version: 6.00 Build 0)  -->
<svg version="1.1" id="&#x428;&#x430;&#x440;_1" xmlns="http://www.w3.org/2000/svg" xmlns:xlink="http://www.w3.org/1999/xlink"
	 x="0px" y="0px" viewBox="0 0 30 30" style="enable-background:new 0 0 30 30;" xml:space="preserve">
<path d="M30,5c0-2.627-2.371-5-5-5H5C2.371,0,0,2.373,0,5v20c0,2.627,2.371,5,5,5h10V18.667h-3.667v-5H15v-1.948
	c0-3.36,2.523-6.385,5.625-6.385h4.041v5h-4.041c-0.443,0-0.959,0.537-0.959,1.341v1.992h5v5h-5V30H25c2.629,0,5-2.373,5-5V5z M30,5
	"/>
</svg>
