<?xml version="1.0" encoding="iso-8859-1"?>
<!-- Generator: Adobe Illustrator 21.0.2, SVG Export Plug-In . SVG Version: 6.00 Build 0)  -->
<svg version="1.1" id="&#x428;&#x430;&#x440;_1" xmlns="http://www.w3.org/2000/svg" xmlns:xlink="http://www.w3.org/1999/xlink"
	 x="0px" y="0px" viewBox="0 0 30 30" style="enable-background:new 0 0 30 30;" xml:space="preserve">
<g>
	<path style="fill:#12100C;" d="M19.33,17.592c-0.96,0-1.742,0.781-1.742,1.741c0,0.96,0.781,1.742,1.742,1.742
		c0.96,0,1.741-0.781,1.741-1.742C21.071,18.374,20.291,17.592,19.33,17.592L19.33,17.592z"/>
	<path style="fill:#12100C;" d="M10.65,12.396c0.96,0,1.741-0.781,1.741-1.741c0-0.96-0.781-1.742-1.741-1.742
		c-0.96,0-1.742,0.781-1.742,1.742C8.909,11.615,9.69,12.396,10.65,12.396L10.65,12.396z"/>
	<path style="fill:#12100C;" d="M19.33,22.952c-1.995,0-3.618-1.623-3.618-3.618c0-1.995,1.623-3.618,3.618-3.618
		c1.995,0,3.618,1.623,3.618,3.618C22.948,21.329,21.325,22.952,19.33,22.952L19.33,22.952z M9.551,21.776
		c-0.183,0.183-0.424,0.275-0.663,0.275c-0.24,0-0.48-0.092-0.664-0.275c-0.366-0.366-0.366-0.961,0-1.327L20.449,8.224
		c0.366-0.366,0.96-0.366,1.327,0c0.366,0.366,0.366,0.961,0,1.327L9.551,21.776L9.551,21.776z M10.65,7.037
		c1.995,0,3.618,1.623,3.618,3.618c0,1.995-1.623,3.618-3.618,3.618c-1.995,0-3.618-1.623-3.618-3.618
		C7.032,8.659,8.655,7.037,10.65,7.037L10.65,7.037z M15.001,0c-8.271,0-15,6.729-15,15c0,8.271,6.729,15,15,15
		c8.27,0,14.999-6.729,14.999-15C29.999,6.729,23.271,0,15.001,0L15.001,0z"/>
</g>
</svg>
