<?xml version="1.0" encoding="iso-8859-1"?>
<!-- Generator: Adobe Illustrator 21.0.2, SVG Export Plug-In . SVG Version: 6.00 Build 0)  -->
<svg version="1.1" id="&#x428;&#x430;&#x440;_1" xmlns="http://www.w3.org/2000/svg" xmlns:xlink="http://www.w3.org/1999/xlink"
	 x="0px" y="0px" viewBox="0 0 30 30" style="enable-background:new 0 0 30 30;" xml:space="preserve">
<g>
	<g>
		<path d="M9.309,30c-1.999-4.161-0.934-6.544,0.602-8.79c1.683-2.46,2.117-4.894,2.117-4.894s1.323,1.72,0.794,4.409
			c2.337-2.602,2.778-6.747,2.425-8.334c5.283,3.692,7.54,11.685,4.497,17.609c16.183-9.156,4.025-22.857,1.909-24.4
			c0.706,1.543,0.839,4.156-0.586,5.424C18.654,1.875,12.689,0,12.689,0c0.706,4.718-2.557,9.877-5.704,13.732
			c-0.111-1.881-0.228-3.179-1.217-4.98c-0.222,3.418-2.834,6.204-3.541,9.628C1.269,23.017,2.944,26.413,9.309,30L9.309,30z
			 M9.309,30"/>
	</g>
</g>
</svg>
